<?xml version="1.0" encoding="utf-8"?>
<!-- Generator: Adobe Illustrator 21.0.0, SVG Export Plug-In . SVG Version: 6.00 Build 0)  -->
<svg version="1.1" id="Layer_1" xmlns="http://www.w3.org/2000/svg" xmlns:xlink="http://www.w3.org/1999/xlink" x="0px" y="0px"
	 viewBox="0 0 700 700" style="enable-background:new 0 0 700 700;" xml:space="preserve">
<path d="M349.8,696.7c-190.8,0-346-155.2-346-346s155.2-346,346-346s346,155.2,346,346S540.6,696.7,349.8,696.7z M482.5,348.8
	l69.6-69.6c8.2-8.2,7-20.4-1.2-28.6c-8.2-8.2-20.4-9.4-28.6-1.2l-69.6,69.6l-67.1-67.1l69.6-69.6c8.2-8.2,7-20.4-1.2-28.6
	c-8.2-8.2-20.4-9.4-28.6-1.2L355.7,222l-69.6-69.6c-8.2-8.2-20.4-7-28.6,1.2c-8.2,8.2-9.4,20.4-1.2,28.6l69.6,69.6l-67.1,67.1
	l-69.6-69.6c-8.2-8.2-20.4-7-28.6,1.2c-8.2,8.2-9.4,20.4-1.2,28.6l69.6,69.6l-69.6,69.6c-8.2,8.2-7,20.4,1.2,28.6
	c8.2,8.2,20.4,9.4,28.6,1.2l69.6-69.6l67.1,67.1l-69.6,69.6c-8.2,8.2-7,20.4,1.2,28.6c8.2,8.2,20.4,9.4,28.6,1.2l69.6-69.6
	l69.6,69.6c8.2,8.2,20.4,7,28.6-1.2c8.2-8.2,9.4-20.4,1.2-28.6l-69.6-69.6l67.1-67.1l69.6,69.6c8.2,8.2,20.4,7,28.6-1.2
	c8.2-8.2,9.4-20.4,1.2-28.6L482.5,348.8z M355.7,415.9l-67.1-67.1l67.1-67.1l67.1,67.1L355.7,415.9z"/>
</svg>
