<svg xmlns="http://www.w3.org/2000/svg" width="120" height="55" viewBox="0 0 120 55">
  <defs>
    <style>
      .cls-1 {
        fill: none;
      }

      .cls-2 {
        fill: #005faf;
      }
    </style>
  </defs>
  <title>logo-boeing</title>
  <g id="Layer_2" data-name="Layer 2">
    <g id="Layer_1-2" data-name="Layer 1">
      <g>
        <rect class="cls-1" width="120" height="55"/>
        <g id="_Layer_" data-name="&lt;Layer&gt;">
          <g>
            <path class="cls-2" d="M18.23,30.47a9.26,9.26,0,0,0,.93-4.07,9.61,9.61,0,0,0-4.24-8,66.26,66.26,0,0,1,5-4.66,45.88,45.88,0,0,0-5.85,4.16A9.62,9.62,0,0,0,2.29,32.68c-1.87,4-2.12,7.12-.51,8.23S7.29,40,9.5,36.58c0,0-3.48,3.14-5.43,2.46-1.19-.42-1.19-2.29-.25-4.83A9.5,9.5,0,0,0,9.5,36.07a9.15,9.15,0,0,0,6.7-2.8l.34.68c4.16-.34,16.62-.68,16.62-.68C33.24,32.59,25,33.19,18.23,30.47Zm-17-4.07A8.36,8.36,0,0,1,9.58,18a7.76,7.76,0,0,1,3.48.76A46.2,46.2,0,0,0,2.88,31.49,8,8,0,0,1,1.19,26.4Zm8.4,8.48A8.3,8.3,0,0,1,4.41,33.1a55.72,55.72,0,0,1,9.67-13.74A8.52,8.52,0,0,1,17.22,30a14.15,14.15,0,0,1-4-2.63l2.54,4.75A8.72,8.72,0,0,1,9.58,34.88Z"/>
            <g>
              <polygon class="cls-2" points="75.39 25.55 76.92 23.43 71.49 23.43 72.85 21.65 78.28 21.65 79.8 19.62 68.95 19.62 61.48 29.54 72.34 29.54 73.95 27.42 68.52 27.42 69.97 25.55 75.39 25.55"/>
              <polygon class="cls-2" points="82.94 19.62 75.48 29.54 80.82 29.54 88.28 19.62 82.94 19.62"/>
              <polygon class="cls-2" points="100.92 19.62 97.19 24.62 96 19.62 91.76 19.62 84.3 29.54 87.86 29.54 91.59 24.54 92.78 29.54 97.02 29.54 104.48 19.62 100.92 19.62"/>
              <path class="cls-2" d="M118.64,19.62h-8.73a4.5,4.5,0,0,0-3.65,1.78l-4.49,5.94a1.37,1.37,0,0,0-.25.76,1.34,1.34,0,0,0,1.36,1.36h8.73a4.5,4.5,0,0,0,3.65-1.78l1.1-1.44h1.27l1.61-2.12h-6.7l-2.12,2.8a1.47,1.47,0,0,1-.93.51H108a.36.36,0,0,1-.34-.34c0-.08,0-.17.08-.17l3.56-4.75a1.29,1.29,0,0,1,.93-.51h1.53a.36.36,0,0,1,.34.34c0,.08,0,.17-.08.17l-.59.76h5.43l.93-1.27a1.37,1.37,0,0,0,.25-.76,1.32,1.32,0,0,0-1.36-1.27Z"/>
              <path class="cls-2" d="M64.54,21a1.34,1.34,0,0,0-1.36-1.36H54.53a4.5,4.5,0,0,0-3.65,1.78l-4.49,5.94a1.37,1.37,0,0,0-.25.76,1.34,1.34,0,0,0,1.36,1.36h8.73a4.5,4.5,0,0,0,3.65-1.78l4.49-5.94a2.48,2.48,0,0,0,.17-.76Zm-6,1.27L55,27a1.47,1.47,0,0,1-.93.51H52.49a.36.36,0,0,1-.34-.34c0-.08,0-.17.08-.17l3.56-4.75a1.47,1.47,0,0,1,.93-.51h1.53a.36.36,0,0,1,.34.34.3.3,0,0,0-.08.17Z"/>
              <path class="cls-2" d="M44.1,24.79a4.61,4.61,0,0,0,2.63-1.7l1-1.36A1.37,1.37,0,0,0,48,21a1.34,1.34,0,0,0-1.36-1.36h-11l-7.46,9.92H39.52a4.5,4.5,0,0,0,3.65-1.78l1-1.36a.91.91,0,0,0,.17-.68.77.77,0,0,0-.25-.93Zm-5,1.27-.68.85a1.47,1.47,0,0,1-.93.51h-2.2l1.44-2h2.12a.36.36,0,0,1,.34.34.66.66,0,0,0-.08.25ZM42,22.25l-.59.76a1.47,1.47,0,0,1-.93.51h-2.2l1.36-1.78h2.12a.36.36,0,0,1,.34.34.3.3,0,0,0-.08.17Z"/>
            </g>
          </g>
        </g>
      </g>
    </g>
  </g>
</svg>
