<svg xmlns="http://www.w3.org/2000/svg" width="120" height="55" viewBox="0 0 120 55">
  <defs>
    <style>
      .cls-1 {
        fill: none;
      }

      .cls-2 {
        fill: #fd2b25;
      }

      .cls-3 {
        fill: #ffb800;
      }

      .cls-4 {
        fill: #1f86fb;
      }

      .cls-5 {
        fill: #00aa47;
      }
    </style>
  </defs>
  <title>logo-google</title>
  <g id="Layer_2" data-name="Layer 2">
    <g id="Layer_1-2" data-name="Layer 1">
      <g>
        <rect class="cls-1" width="120" height="55"/>
        <g>
          <path class="cls-2" d="M51.4,28.53a9.85,9.85,0,1,1-9.85-9.82A9.7,9.7,0,0,1,51.4,28.53Zm-4.31,0a5.55,5.55,0,1,0-11.07,0,5.55,5.55,0,1,0,11.07,0Z"/>
          <path class="cls-3" d="M72.65,28.53a9.85,9.85,0,1,1-9.85-9.82A9.7,9.7,0,0,1,72.65,28.53Zm-4.31,0a5.55,5.55,0,1,0-11.07,0,5.55,5.55,0,1,0,11.07,0Z"/>
          <path class="cls-4" d="M93,19.31V36.93c0,7.25-4.28,10.21-9.33,10.21A9.35,9.35,0,0,1,75,41.36l3.75-1.56a5.42,5.42,0,0,0,4.94,3.48c3.24,0,5.24-2,5.24-5.75V36.11h-.15a6.68,6.68,0,0,1-5.17,2.23,9.82,9.82,0,0,1,0-19.63,6.8,6.8,0,0,1,5.17,2.2h.15v-1.6H93Zm-3.79,9.26c0-3.46-2.31-6-5.24-6a5.68,5.68,0,0,0-5.47,6A5.63,5.63,0,0,0,84,34.48C86.91,34.48,89.22,32,89.22,28.57Z"/>
          <path class="cls-5" d="M99.76,9V37.75H95.55V9Z"/>
          <path class="cls-2" d="M116.15,31.76,119.49,34a9.77,9.77,0,0,1-8.18,4.35,9.61,9.61,0,0,1-9.74-9.82c0-5.84,4.2-9.82,9.26-9.82s7.59,4.05,8.4,6.25l.45,1.12-13.12,5.44a5,5,0,0,0,4.76,3,5.6,5.6,0,0,0,4.83-2.72Zm-10.3-3.53,8.77-3.64A3.8,3.8,0,0,0,111,22.51,5.39,5.39,0,0,0,105.84,28.23Z"/>
          <path class="cls-4" d="M15.78,26V21.81h14A13.8,13.8,0,0,1,30,24.33a13.76,13.76,0,0,1-3.61,9.74,13.94,13.94,0,0,1-10.63,4.28A15.46,15.46,0,0,1,.32,23.1,15.46,15.46,0,0,1,15.79,7.86a14.53,14.53,0,0,1,10.45,4.2L23.3,15a10.62,10.62,0,0,0-7.51-3A10.94,10.94,0,0,0,4.85,23.1,10.94,10.94,0,0,0,15.78,34.18a10.2,10.2,0,0,0,7.7-3A8.63,8.63,0,0,0,25.74,26Z"/>
        </g>
      </g>
    </g>
  </g>
</svg>
