<svg xmlns="http://www.w3.org/2000/svg" width="120" height="55" viewBox="0 0 120 55">
  <defs>
    <style>
      .cls-1 {
        fill: none;
      }

      .cls-2 {
        fill: #512671;
      }

      .cls-3 {
        fill: #52c028;
      }
    </style>
  </defs>
  <title>logo-telus</title>
  <g id="Layer_2" data-name="Layer 2">
    <g id="Layer_1-2" data-name="Layer 1">
      <g>
        <rect class="cls-1" width="120" height="55"/>
        <g>
          <g>
            <polyline class="cls-2" points="69.64 22.52 69.64 20.12 61.07 20.12 61.07 32.48 69.64 32.48 69.64 29.98 64.54 29.98 64.54 27.24 68.78 27.24 68.78 24.84 64.54 24.84 64.54 22.52 69.64 22.52"/>
            <polyline class="cls-2" points="84.77 30.04 79.41 30.04 79.41 20.12 75.9 20.12 75.9 32.48 84.77 32.48 84.77 30.04"/>
            <path class="cls-2" d="M113.08,24.83c-2.37-.54-3.2-.6-3.2-1.54s1.17-1.15,1.85-1.15a8.1,8.1,0,0,1,3.7.93l1-2.28a10.11,10.11,0,0,0-4.74-1c-3.27,0-5.47,1.33-5.56,3.91-.09,2.36,1.82,3.24,3.59,3.61s3.42.65,3.46,1.66-.81,1.33-2.39,1.33a10.92,10.92,0,0,1-4.22-1.05l-.81,2.47a12.43,12.43,0,0,0,4.89,1.05c2.32,0,4-.36,5.27-1.53a3.56,3.56,0,0,0,1.15-2.7c0-2-1.22-3.06-3.95-3.68"/>
            <polyline class="cls-2" points="56.08 22.56 56.08 20.12 45.3 20.12 45.3 22.56 48.94 22.56 48.94 32.48 52.44 32.48 52.44 22.56 56.08 22.56"/>
            <path class="cls-2" d="M96.76,20.12V28a6,6,0,0,1,0,1c-.11.75-.84,1.18-2,1.2a2.08,2.08,0,0,1-1.78-.71,2.62,2.62,0,0,1-.22-1.31V20.12H89.08v8.53A3.25,3.25,0,0,0,89.77,31c.88,1.1,2.59,1.68,5,1.68h.13c3.16,0,4.79-1.23,5.27-2.39a4.09,4.09,0,0,0,.25-2V20.12H96.76"/>
            <g>
              <path class="cls-2" d="M46.94,16.73,26.5,20.8v1.42h.07C40.07,18.93,46.94,17,47,16.94a.11.11,0,0,0,.09-.13.12.12,0,0,0-.15-.08"/>
              <path class="cls-3" d="M29.79,17.87c.32-.2.41-.08.31.15s-.84,2.58-6,6.8a29.21,29.21,0,0,1-4.23,2.86,44.29,44.29,0,0,1,9.91-9.82m.54-1.53c-1,.06-2.83,1.53-3.84,2.4a48.36,48.36,0,0,0-9.19,10A111.17,111.17,0,0,1,1.24,35.64l-.14,0-1.1,3,.63-.24A152.5,152.5,0,0,0,15.9,31.51a6.56,6.56,0,0,0-.47,2.29,3.9,3.9,0,0,0,.26,1.44,3.42,3.42,0,0,0,2,1.91,8.55,8.55,0,0,0,5.54-.09c5.62-1.71,12.29-6.93,13.74-8L37,29a.11.11,0,0,0,0-.15.11.11,0,0,0-.15,0h0l-.07,0c-1.56.93-9.13,5.43-14,6.75-2.51.67-4.41.3-5.14-.7a2.14,2.14,0,0,1-.37-1.29A7.26,7.26,0,0,1,18.63,30c.83-.47,1.6-.93,2.3-1.37,4.8-2.7,10.33-7.94,10.56-11.14,0,0,0,0,0-.07a1.12,1.12,0,0,0-.33-.77A1.07,1.07,0,0,0,30.32,16.34Z"/>
            </g>
            <polyline class="cls-2" points="26.43 20.82 4.93 25.44 4.1 27.67 26.5 22.22 26.54 22.22 26.54 20.79 26.43 20.82"/>
          </g>
          <path class="cls-2" d="M118.8,20.1a1.2,1.2,0,1,1-1.21,1.19A1.19,1.19,0,0,1,118.8,20.1Zm0,2.22a1,1,0,1,0-1-1A1,1,0,0,0,118.8,22.32Zm-.47-1.72h.54c.33,0,.49.13.49.4a.36.36,0,0,1-.37.38l.4.62h-.23l-.38-.6h-.23V22h-.22v-1.4Zm.22.62h.23c.19,0,.37,0,.37-.23s-.16-.21-.31-.21h-.29v.44Z"/>
        </g>
      </g>
    </g>
  </g>
</svg>
