<svg xmlns="http://www.w3.org/2000/svg" width="120" height="55" viewBox="0 0 120 55">
  <defs>
    <style>
      .cls-1 {
        fill: none;
      }

      .cls-2 {
        fill: #231f20;
      }

      .cls-3 {
        fill: #ed1c24;
      }
    </style>
  </defs>
  <title>logo-canheritage</title>
  <g id="Layer_2" data-name="Layer 2">
    <g id="Layer_1-2" data-name="Layer 1">
      <g>
        <rect class="cls-1" width="120" height="55"/>
        <g>
          <polygon class="cls-2" points="42.62 27.88 43.37 27.88 43.37 33.44 42.62 33.44 42.62 30.85 39.71 30.85 39.71 33.44 38.96 33.44 38.96 27.88 39.71 27.88 39.71 30.18 42.62 30.18 42.62 27.88"/>
          <g>
            <path class="cls-2" d="M45,31.1a1.19,1.19,0,0,1,1.12-1.21c.83,0,1.09.58,1.13,1.21H45m2.22,1.08a1,1,0,0,1-1,.8c-.78,0-1.18-.49-1.18-1.33h3c0-1.43-.57-2.36-1.74-2.36-1.34,0-1.94,1-1.94,2.25a1.82,1.82,0,0,0,1.81,2,1.69,1.69,0,0,0,1.82-1.39h-.68"/>
            <path class="cls-2" d="M49.54,33.44h-.68V29.39h.64v.67h0a1.32,1.32,0,0,1,1.14-.79.54.54,0,0,1,.18,0V30h-.26a1,1,0,0,0-1,1.08v2.36"/>
            <path class="cls-2" d="M52.16,33.44h-.68V29.39h.68Zm-.68-5.56h.68v.78h-.68Z"/>
            <path class="cls-2" d="M54,30v2.63c0,.32.27.32.41.32h.24v.53l-.51.06c-.67,0-.82-.38-.82-.87V30h-.55v-.57h.55V28.26H54v1.13h.65V30H54"/>
            <path class="cls-2" d="M57.81,32c0,.54-.62,1-1.26,1a.64.64,0,0,1-.74-.7c0-.51.54-.61.87-.66.84-.11,1-.17,1.12-.26V32m-1.87-1.42a.81.81,0,0,1,.93-.78c.64,0,1,.23,1,.66s-.19.47-.36.48l-1.12.14a1.22,1.22,0,0,0-1.23,1.27,1.17,1.17,0,0,0,1.27,1.17,1.84,1.84,0,0,0,1.47-.66c0,.31.12.62.72.62a1.24,1.24,0,0,0,.37-.08v-.5l-.22,0c-.14,0-.23-.07-.23-.24V30.41c0-1-1.18-1.13-1.5-1.13-1,0-1.64.38-1.67,1.35h.63"/>
            <path class="cls-2" d="M60.16,31.41c0-.52.06-1.52,1.11-1.52s1.09,1.06,1.09,1.72c0,1.08-.68,1.36-1.11,1.36-.74,0-1.09-.67-1.09-1.57m2.85-2h-.64V30a1.4,1.4,0,0,0-1.22-.71c-1.08,0-1.69.88-1.69,2,0,1,.4,2.26,1.78,2.26A1.2,1.2,0,0,0,62.32,33v.17c0,.48,0,1.43-1.15,1.43a.83.83,0,0,1-.91-.64h-.68a1.39,1.39,0,0,0,1.55,1.21,1.73,1.73,0,0,0,1.88-2V29.39"/>
            <path class="cls-2" d="M64.49,31.1a1.19,1.19,0,0,1,1.12-1.21c.83,0,1.09.58,1.13,1.21H64.49m2.22,1.08a1,1,0,0,1-1,.8c-.78,0-1.18-.49-1.18-1.33h3c0-1.43-.57-2.36-1.74-2.36-1.34,0-1.94,1-1.94,2.25a1.82,1.82,0,0,0,1.81,2,1.68,1.68,0,0,0,1.82-1.39h-.68"/>
            <path class="cls-2" d="M86.1,30.64a.91.91,0,0,0-1-.88c-.86,0-1.13.82-1.13,1.55s.17,1.58,1.12,1.58a1,1,0,0,0,1-1h.67a1.62,1.62,0,0,1-1.67,1.57,1.84,1.84,0,0,1-1.84-2.06c0-1.27.61-2.28,2-2.28a1.48,1.48,0,0,1,1.54,1.5H86.1"/>
            <path class="cls-2" d="M90,31.94c0,.55-.63,1-1.27,1a.65.65,0,0,1-.74-.71c0-.52.54-.62.88-.67.86-.11,1-.17,1.14-.26v.67M88.07,30.5a.82.82,0,0,1,.94-.79c.65,0,1,.24,1,.67s-.2.47-.36.49L88.48,31a1.23,1.23,0,0,0-1.25,1.29,1.18,1.18,0,0,0,1.29,1.18A1.86,1.86,0,0,0,90,32.81c0,.31.12.63.73.63a1.28,1.28,0,0,0,.38-.08v-.5l-.23,0c-.14,0-.23-.07-.23-.24V30.29c0-1.05-1.19-1.15-1.52-1.15-1,0-1.66.38-1.7,1.36h.64"/>
            <path class="cls-2" d="M95.16,33.36h-.69V30.83c0-.71-.2-1.07-.88-1.07-.39,0-1.08.25-1.08,1.37v2.23h-.69v-4.1h.65v.58h0a1.49,1.49,0,0,1,1.24-.7,1.3,1.3,0,0,1,1.44,1.43v2.79"/>
            <path class="cls-2" d="M98.68,31.94c0,.55-.63,1-1.27,1a.65.65,0,0,1-.75-.71c0-.52.54-.62.88-.67.86-.11,1-.17,1.14-.26v.67M96.79,30.5a.82.82,0,0,1,.94-.79c.65,0,1,.24,1,.67s-.19.47-.36.49L97.2,31A1.23,1.23,0,0,0,96,32.29a1.18,1.18,0,0,0,1.29,1.18,1.87,1.87,0,0,0,1.48-.67c0,.31.12.63.73.63a1.28,1.28,0,0,0,.38-.08v-.5l-.23,0c-.14,0-.23-.07-.23-.24V30.29c0-1.05-1.19-1.15-1.52-1.15-1,0-1.66.38-1.7,1.36h.64"/>
            <path class="cls-2" d="M101,31.3c0-.53.05-1.54,1.12-1.54s1.11,1.07,1.11,1.74c0,1.09-.68,1.38-1.12,1.38-.75,0-1.11-.68-1.11-1.58m2.93-3.57h-.69v2.11h0a1.39,1.39,0,0,0-1.22-.7c-1.09,0-1.71.89-1.71,2,0,1,.41,2.29,1.8,2.29a1.24,1.24,0,0,0,1.17-.68h0v.56h.65V27.73"/>
            <path class="cls-2" d="M105.61,33.36h-.69v-4.1h.69Zm-.69-5.63h.69v.78h-.69Z"/>
            <path class="cls-2" d="M107.18,31a1.2,1.2,0,0,1,1.14-1.22c.84,0,1.11.59,1.15,1.22h-2.28m2.25,1.09a1,1,0,0,1-1.06.81c-.79,0-1.19-.49-1.19-1.35h3c0-1.45-.58-2.39-1.77-2.39-1.36,0-2,1-2,2.28a1.84,1.84,0,0,0,1.83,2.05,1.7,1.7,0,0,0,1.84-1.4h-.69"/>
            <path class="cls-2" d="M114.34,33.36h-.69V30.83c0-.71-.2-1.07-.88-1.07-.39,0-1.08.25-1.08,1.37v2.23H111v-4.1h.65v.58h0a1.49,1.49,0,0,1,1.24-.7,1.3,1.3,0,0,1,1.43,1.43v2.79"/>
            <path class="cls-2" d="M42.86,21.81a1.45,1.45,0,0,0-1.56-1.15c-1,0-1.82.74-1.82,2.21,0,1.31.47,2.32,1.84,2.32.49,0,1.33-.23,1.59-1.53h.73a2.35,2.35,0,0,1-2.43,2.19c-1.26,0-2.5-.82-2.5-3A2.59,2.59,0,0,1,41.3,20a2.11,2.11,0,0,1,2.29,1.82h-.73"/>
            <path class="cls-2" d="M46.93,24.3c0,.54-.62,1-1.25,1a.64.64,0,0,1-.74-.71c0-.51.54-.61.87-.66.84-.11,1-.17,1.12-.26v.67m-1.87-1.42A.81.81,0,0,1,46,22.1c.64,0,1,.23,1,.66s-.19.46-.36.48l-1.12.14a1.22,1.22,0,0,0-1.23,1.27,1.17,1.17,0,0,0,1.27,1.17A1.84,1.84,0,0,0,47,25.16c0,.31.12.62.72.62a1.27,1.27,0,0,0,.37-.08v-.5l-.22,0c-.14,0-.22-.07-.22-.24V22.66c0-1-1.18-1.13-1.5-1.13-1,0-1.64.38-1.67,1.35h.63"/>
            <path class="cls-2" d="M52.07,25.7h-.68V23.2c0-.7-.2-1.06-.87-1.06-.39,0-1.07.25-1.07,1.35V25.7h-.68V21.65h.64v.57h0a1.47,1.47,0,0,1,1.22-.69,1.28,1.28,0,0,1,1.42,1.41V25.7"/>
            <path class="cls-2" d="M55.55,24.3c0,.54-.62,1-1.26,1a.64.64,0,0,1-.74-.71c0-.51.54-.61.87-.66.85-.11,1-.17,1.12-.26v.67m-1.87-1.42a.81.81,0,0,1,.93-.78c.64,0,1,.23,1,.66s-.19.46-.36.48l-1.12.14a1.22,1.22,0,0,0-1.23,1.27,1.17,1.17,0,0,0,1.27,1.17,1.84,1.84,0,0,0,1.46-.66c0,.31.12.62.72.62a1.27,1.27,0,0,0,.37-.08v-.5l-.22,0c-.14,0-.23-.07-.23-.24V22.66c0-1-1.18-1.13-1.5-1.13-1,0-1.64.38-1.67,1.35h.63"/>
            <path class="cls-2" d="M57.86,23.66c0-.52.05-1.52,1.11-1.52s1.09,1.06,1.09,1.72c0,1.08-.68,1.36-1.11,1.36-.74,0-1.09-.67-1.09-1.56m2.89-3.53h-.68v2.08h0a1.37,1.37,0,0,0-1.21-.69c-1.08,0-1.69.88-1.69,2,0,1,.4,2.26,1.78,2.26a1.22,1.22,0,0,0,1.15-.67h0v.56h.64V20.14"/>
            <path class="cls-2" d="M62.39,25.7h-.68V21.65h.68Zm-.68-5.56h.68v.77h-.68Z"/>
            <path class="cls-2" d="M65.88,24.3c0,.54-.62,1-1.26,1a.64.64,0,0,1-.73-.71c0-.51.53-.61.87-.66.84-.11,1-.17,1.12-.26v.67M64,22.88a.81.81,0,0,1,.93-.78c.64,0,1,.23,1,.66s-.19.46-.36.48l-1.12.14a1.22,1.22,0,0,0-1.23,1.27,1.17,1.17,0,0,0,1.27,1.17,1.84,1.84,0,0,0,1.47-.66c0,.31.12.62.72.62A1.27,1.27,0,0,0,67,25.7v-.5l-.22,0c-.14,0-.23-.07-.23-.24V22.66c0-1-1.18-1.13-1.5-1.13-1,0-1.64.38-1.67,1.35H64"/>
            <path class="cls-2" d="M71,25.7h-.68V23.2c0-.7-.2-1.06-.87-1.06-.39,0-1.07.25-1.07,1.35V25.7h-.68V21.65h.64v.57h0a1.47,1.47,0,0,1,1.22-.69A1.28,1.28,0,0,1,71,22.94V25.7"/>
            <path class="cls-2" d="M84.46,20.54H86c.63,0,1.11.23,1.11.94s-.46,1-1.14,1H84.46v-2m0,2.6h1.77a1.57,1.57,0,0,0,1.67-1.67,1.54,1.54,0,0,0-1.67-1.58H83.7v5.63h.76V23.14"/>
            <path class="cls-2" d="M91,24.1c0,.55-.63,1-1.27,1a.65.65,0,0,1-.74-.71c0-.52.54-.62.88-.67.86-.11,1-.17,1.14-.26v.67m-1.89-1.44a.82.82,0,0,1,.94-.79c.65,0,1,.24,1,.67s-.19.47-.36.49l-1.14.14a1.23,1.23,0,0,0-1.24,1.29,1.18,1.18,0,0,0,1.29,1.18A1.87,1.87,0,0,0,91,25c0,.31.12.63.73.63a1.3,1.3,0,0,0,.38-.08V25l-.23,0c-.14,0-.23-.07-.23-.24V22.44c0-1.05-1.19-1.15-1.52-1.15-1,0-1.66.38-1.69,1.37h.64"/>
            <path class="cls-2" d="M93.66,22v2.67c0,.32.28.32.42.32h.24v.54l-.52.05c-.68,0-.83-.38-.83-.88V22h-.56v-.57H93V20.27h.69v1.15h.66V22h-.66"/>
            <path class="cls-2" d="M95.78,25.52h-.69v-4.1h.65v.68h0a1.33,1.33,0,0,1,1.15-.8.56.56,0,0,1,.18,0V22h-.26a1,1,0,0,0-1.05,1.1v2.38"/>
            <path class="cls-2" d="M98.43,25.52h-.69v-4.1h.69Zm-.69-5.63h.69v.78h-.69Z"/>
            <path class="cls-2" d="M99.47,21.42h.65V22h0a1.44,1.44,0,0,1,1.24-.7,1.11,1.11,0,0,1,1.09.67,1.5,1.5,0,0,1,1.25-.67A1.24,1.24,0,0,1,105,22.68v2.84h-.69V22.87c0-.56-.17-.95-.76-.95a1,1,0,0,0-1,1.1v2.5h-.69V22.68c0-.34-.13-.76-.64-.76s-1.08.25-1.08,1.36v2.24h-.69v-4.1"/>
            <path class="cls-2" d="M106.48,23.46c0-.55.2-1.57,1.19-1.57s1.19,1,1.19,1.57-.2,1.57-1.19,1.57-1.19-1-1.19-1.57m-.72,0a1.92,1.92,0,1,0,3.81,0,1.92,1.92,0,1,0-3.81,0"/>
            <path class="cls-2" d="M111.07,25.52h-.69v-4.1h.69Zm-.69-5.63h.69v.78h-.69Z"/>
            <path class="cls-2" d="M115.44,25.52h-.69V23c0-.71-.2-1.08-.87-1.08-.39,0-1.08.25-1.08,1.37v2.24h-.69v-4.1h.65V22h0a1.49,1.49,0,0,1,1.24-.7,1.3,1.3,0,0,1,1.43,1.43v2.79"/>
            <path class="cls-2" d="M117,23.14a1.2,1.2,0,0,1,1.14-1.22c.84,0,1.11.59,1.15,1.22H117m2.25,1.09a1,1,0,0,1-1.06.81c-.79,0-1.19-.49-1.19-1.35h3c0-1.45-.58-2.39-1.77-2.39-1.36,0-2,1-2,2.28a1.84,1.84,0,0,0,1.84,2.06,1.71,1.71,0,0,0,1.84-1.4h-.69"/>
            <rect class="cls-3" y="19.85" width="6.75" height="13.5"/>
            <rect class="cls-3" x="20.25" y="19.85" width="6.75" height="13.5"/>
            <path class="cls-3" d="M13.77,32.3c.07,0,0-2.28,0-2.42,0-.9,2.36.24,2.79.09-.15-.32-.51-.86-.34-1.17.89-.78,1.78-1.46,2.68-2.18l0,0c-.89-.37-.32-1.21-.15-2.11-1.24.22-1.41.6-2-.64-.12,0-1.48,2.08-1.66,1.28.22-1,.44-1.94.65-2.9-.29.13-.57.44-1,.47l-.13,0a7.31,7.31,0,0,1-1-1.78,7.37,7.37,0,0,1-1,1.78l-.13,0c-.46,0-.72-.35-1-.47.21,1,.43,1.94.65,2.9-.18.8-1.54-1.28-1.65-1.28-.57,1.24-.74.86-2,.64.17.9.76,1.74-.14,2.11l-.06,0C9,27.34,9.94,28,10.83,28.8c.17.31-.18.85-.33,1.17.42.15,2.79-1,2.79-.09,0,.14-.12,2.42-.06,2.42h.54"/>
          </g>
        </g>
      </g>
    </g>
  </g>
</svg>
