<svg xmlns="http://www.w3.org/2000/svg" width="120" height="55.5" viewBox="0 0 120 55.5">
  <defs>
    <style>
      .cls-1 {
        fill: none;
      }

      .cls-2 {
        fill: #003ca4;
      }

      .cls-3 {
        fill: #fff;
      }
    </style>
  </defs>
  <title>logo-mars</title>
  <g id="Layer_2" data-name="Layer 2">
    <g id="Layer_1-2" data-name="Layer 1">
      <g>
        <rect class="cls-1" y="0.5" width="120" height="55"/>
        <g>
          <path class="cls-2" d="M55,27.5A27.5,27.5,0,1,1,27.5,0,27.5,27.5,0,0,1,55,27.5"/>
          <path class="cls-3" d="M14.7,33.92V30.8c0-1.29,0-2.47.08-3.48-.39,1-1.07,2.49-1.51,3.42l-1.72,3.62L9.82,30.74c-.45-.93-1.12-2.45-1.51-3.42.06,1,.08,2.19.08,3.48v3.12H5V20.84H8.31l1.61,3.49a34.91,34.91,0,0,1,1.64,3.94,37.36,37.36,0,0,1,1.65-3.94l1.61-3.49H18.1V33.92Z"/>
          <path class="cls-3" d="M24.59,33.92v-.65a4,4,0,0,1-2.39.86c-1.91,0-3.18-1.18-3.18-3.38s1.46-3.2,3.53-3.2a4.67,4.67,0,0,1,2,.41v-.49c0-.86-.47-1.16-1.38-1.16a5.19,5.19,0,0,0-2.73.71L19.6,24.8a9.34,9.34,0,0,1,4.22-.9c2.75,0,3.94,1.36,3.94,3.64v6.37Zm0-4a3.32,3.32,0,0,0-1.44-.28.94.94,0,0,0-1,1,1,1,0,0,0,1,1.06,2.41,2.41,0,0,0,1.44-.49Z"/>
          <path class="cls-3" d="M36.1,33.92,34,29.51H32.51v4.41H28.94V20.84h5.85c3.06,0,5.1,1.16,5.1,4.26a3.87,3.87,0,0,1-2.35,3.83l2.62,5ZM34.7,23.79H32.51v2.86h2.13c1.18,0,1.64-.52,1.64-1.46s-.45-1.4-1.59-1.4"/>
          <path class="cls-3" d="M45.81,34.12a10.43,10.43,0,0,1-5.51-1.59l1.76-2.84A7.9,7.9,0,0,0,45.89,31c1.29,0,1.7-.22,1.7-.84s-.47-.78-2.22-1.2c-3.16-.73-4.67-1.59-4.67-4.21s2-4.13,5.16-4.13a8.59,8.59,0,0,1,5.21,1.51L49.31,25a6.34,6.34,0,0,0-3.64-1.23c-1.08,0-1.35.34-1.35.8s.47.71,2.15,1.1c3.29.78,4.75,1.79,4.75,4.24,0,3-2.26,4.22-5.4,4.22"/>
        </g>
      </g>
    </g>
  </g>
</svg>
