<svg xmlns="http://www.w3.org/2000/svg" width="120" height="55" viewBox="0 0 120 55">
  <defs>
    <style>
      .cls-1 {
        fill: none;
      }

      .cls-2 {
        fill: #fff;
      }

      .cls-3 {
        fill: #ed3729;
      }

      .cls-4 {
        fill: #231f20;
      }
    </style>
  </defs>
  <title>logo-nserc</title>
  <g id="Layer_2" data-name="Layer 2">
    <g id="Layer_1-2" data-name="Layer 1">
      <g>
        <rect class="cls-1" width="120" height="55"/>
        <g>
          <g>
            <circle class="cls-2" cx="24.07" cy="27.54" r="23.88"/>
            <path class="cls-3" d="M24.12,3.38A24.12,24.12,0,1,0,48.24,27.5,24.12,24.12,0,0,0,24.12,3.38ZM36,42.72H30.94l-1.4-9.92a.09.09,0,0,0-.19,0l-1.41,9.92H26L24.21,26.34a.09.09,0,0,0-.09-.08.09.09,0,0,0-.09.08L22.24,42.72H20.31L18.9,32.79a.09.09,0,0,0-.19,0l-1.41,9.93H12.22l2-4L4.91,31.24l1.83-1.57L5.15,23.35l5.53.77,1.59-3L18.68,26,16.18,14.84l4,1.76,3.91-6.82L28,16.6l4-1.76L29.56,26,36,21.13l1.59,3,5.53-.77L41.5,29.68l1.83,1.57L34,38.75Z"/>
          </g>
          <polyline class="cls-4" points="57.97 14.99 63.26 14.99 64.19 21.74 64.22 21.74 65.66 14.99 69.24 14.99 66.87 26.14 61.57 26.14 60.66 19.34 60.63 19.34 59.18 26.14 55.59 26.14 57.97 14.99"/>
          <path class="cls-4" d="M77.63,18.16c.13-.7-.21-.93-.78-.93s-1.09.31-1.16.65.14.57.58.71a25.63,25.63,0,0,1,3.32,1A2.35,2.35,0,0,1,81,22.56c-.58,2.73-3.05,3.88-6.2,3.88-2.69,0-5-.83-4.36-3.74h4.23a1.29,1.29,0,0,0,.05.85.83.83,0,0,0,.79.35A1.25,1.25,0,0,0,76.75,23c.09-.42-.19-.63-.58-.75l-2.94-.93a2.24,2.24,0,0,1-1.68-3C72,16,74.19,14.7,77.45,14.7c2.78,0,4.68.86,4.13,3.46h-4"/>
          <polyline class="cls-4" points="85.39 14.99 93.87 14.99 93.25 17.89 89.01 17.89 88.75 19.08 92.68 19.08 92.06 21.99 88.14 21.99 87.87 23.24 92.26 23.24 91.64 26.14 83.02 26.14 85.39 14.99"/>
          <g>
            <path class="cls-4" d="M97,15h6.6c2.39,0,3.64.73,3.2,2.83A3.25,3.25,0,0,1,104,20.47v0c1.06.09,1.55.57,1.58,1.42s-.32,2.53-.17,4.22h-4.32a26.28,26.28,0,0,1,.12-3.2c0-.56-.21-.77-.92-.77h-.51l-.85,4H94.65L97,15m3.24,4.65c.85,0,1.53-.29,1.71-1.13s-.36-1-1.22-1h-.4l-.45,2.12Z"/>
            <path class="cls-4" d="M119.25,22c-.65,3.07-3.4,4.42-6.16,4.42-3.91,0-5.21-2.38-4.46-5.92a6.75,6.75,0,0,1,7-5.82c2.81,0,4.95,1.14,4.27,4.42h-4c.21-1.27-.2-1.51-.74-1.51-1.14,0-1.5,1.17-1.88,3s-.54,3,.57,3c.57,0,1-.34,1.34-1.51h4.14"/>
          </g>
          <path class="cls-4" d="M65.2,37.77c-.65,3.07-3.4,4.42-6.16,4.42-3.91,0-5.21-2.38-4.46-5.92a6.75,6.75,0,0,1,7-5.82c2.81,0,4.95,1.14,4.27,4.42h-4c.21-1.27-.2-1.51-.74-1.51-1.14,0-1.5,1.17-1.88,3s-.54,3,.57,3c.57,0,1-.34,1.34-1.51H65.2"/>
          <path class="cls-4" d="M69.41,30.74H76c2.39,0,3.65.73,3.2,2.83a3.26,3.26,0,0,1-2.77,2.66v0c1.06.09,1.55.57,1.58,1.42s-.32,2.53-.17,4.22H73.51a25.91,25.91,0,0,1,.13-3.2c0-.55-.21-.77-.92-.77h-.51l-.84,4H67l2.37-11.15m3.71,4.65c.85,0,1.53-.29,1.71-1.13s-.36-1-1.22-1h-.4l-.45,2.12Z"/>
          <path class="cls-4" d="M87.59,33.91c.13-.7-.2-.93-.77-.93s-1.09.31-1.16.65.14.57.57.71a25.87,25.87,0,0,1,3.32,1A2.35,2.35,0,0,1,91,38.31c-.58,2.73-3,3.88-6.2,3.88-2.69,0-5-.83-4.36-3.74h4.23a1.31,1.31,0,0,0,.05.85.83.83,0,0,0,.79.36,1.25,1.25,0,0,0,1.26-.91c.09-.42-.19-.63-.58-.76l-2.94-.93a2.24,2.24,0,0,1-1.68-3c.49-2.32,2.64-3.63,5.9-3.63,2.78,0,4.68.87,4.13,3.46h-4"/>
          <polyline class="cls-4" points="95.2 30.74 100.5 30.74 101.42 37.49 101.46 37.49 102.89 30.74 106.47 30.74 104.1 41.9 98.81 41.9 97.89 35.1 97.86 35.1 96.41 41.9 92.83 41.9 95.2 30.74"/>
          <path class="cls-4" d="M113.83,35.61h5.75l-1.24,5.84a25,25,0,0,1-5.72.74c-4,0-5.45-2.46-4.73-5.87a7,7,0,0,1,7.35-5.87c3.43,0,5,1.13,4.47,3.74h-4.14a.75.75,0,0,0-.19-.73,1,1,0,0,0-.68-.2,1.77,1.77,0,0,0-1.48.79,8.78,8.78,0,0,0-.81,2.49,5,5,0,0,0-.17,2.18,1,1,0,0,0,1.12.66,3.05,3.05,0,0,0,1.22-.23l.29-1.34h-1.51l.47-2.19"/>
        </g>
      </g>
    </g>
  </g>
</svg>
