<svg xmlns="http://www.w3.org/2000/svg" width="120" height="55" viewBox="0 0 120 55">
  <defs>
    <style>
      .cls-1 {
        fill: none;
      }

      .cls-2 {
        fill: #ed1b2e;
      }
    </style>
  </defs>
  <title>logo-scotiabank</title>
  <g id="Layer_2" data-name="Layer 2">
    <g id="Layer_1-2" data-name="Layer 1">
      <g>
        <rect class="cls-1" width="120" height="55"/>
        <g>
          <path class="cls-2" d="M46.88,31.05a1.94,1.94,0,0,0,1.8-2.18c0-1.2-.64-2.2-1.8-2.2s-1.8,1-1.8,2.2a1.94,1.94,0,0,0,1.8,2.18m0,2c-2.72,0-4.67-1.64-4.67-4.19s2-4.21,4.67-4.21,4.67,1.67,4.67,4.21-2,4.19-4.67,4.19"/>
          <path class="cls-2" d="M80.4,28.87a1.72,1.72,0,1,0-3.38,0c0,1.19.62,2,1.7,2s1.68-.81,1.68-2m-6.13,4V21.55h2.79v3.89h0a4.37,4.37,0,0,1,2.43-.77,3.82,3.82,0,0,1,3.77,4.06c0,2.89-1.77,4.34-3.79,4.34A3.34,3.34,0,0,1,77,32.15h0l0,.74Z"/>
          <path class="cls-2" d="M60.68,20.79a1.57,1.57,0,1,0,1.57,1.57,1.58,1.58,0,0,0-1.57-1.57m-1.4,4.07h2.8v8h-2.8Z"/>
          <path class="cls-2" d="M95.25,32.9H98V28.75a1.51,1.51,0,0,1,1.47-1.64c.94,0,1.48.61,1.48,1.64V32.9h2.72V28.06a3.19,3.19,0,0,0-3.33-3.38,3.46,3.46,0,0,0-2.53,1.09h-.06l0-.89H95.25v8"/>
          <polygon class="cls-2" points="105.36 32.9 108.15 32.9 108.15 29.18 108.18 29.18 110.66 32.9 113.76 32.9 110.77 28.64 113.69 24.87 110.58 24.87 108.18 28.18 108.15 28.18 108.15 21.56 105.36 21.56 105.36 32.9"/>
          <path class="cls-2" d="M41.49,25a6.72,6.72,0,0,0-2-.32,4.21,4.21,0,1,0-.11,8.41,6.68,6.68,0,0,0,2.11-.35l-.14-2.34a3.32,3.32,0,0,1-1.42.42,1.87,1.87,0,0,1-2-1.92,1.89,1.89,0,0,1,2-1.94,3.16,3.16,0,0,1,1.38.39L41.49,25"/>
          <path class="cls-2" d="M66.29,28.8C66.29,30.13,67,31,68,31a1.89,1.89,0,0,0,1.72-2.05A1.87,1.87,0,0,0,68,26.81a1.82,1.82,0,0,0-1.7,2m6.18-3.94v8H69.76l0-.81h-.06a3.37,3.37,0,0,1-2.68,1c-1.94,0-3.64-1.69-3.64-4.21a3.89,3.89,0,0,1,3.82-4.2,3.18,3.18,0,0,1,2.46.92h.07l0-.73Z"/>
          <path class="cls-2" d="M87.26,28.79C87.26,30.12,88,31,89,31a1.89,1.89,0,0,0,1.72-2.05A1.87,1.87,0,0,0,89,26.8a1.82,1.82,0,0,0-1.7,2m6.18-3.94v8H90.73l0-.81h-.06a3.37,3.37,0,0,1-2.68,1c-1.94,0-3.64-1.69-3.64-4.21a3.89,3.89,0,0,1,3.82-4.2,3.18,3.18,0,0,1,2.46.92h.07l0-.73Z"/>
          <path class="cls-2" d="M26.11,32.6a11.72,11.72,0,0,0,3.23.45c2.39,0,4.77-.85,4.77-3.47,0-3.6-5-3.1-5-4.53,0-.73.76-.89,1.51-.89a8.34,8.34,0,0,1,2.64.62l.23-2.48a9.67,9.67,0,0,0-2.85-.39c-2.36,0-4.68.92-4.68,3.25,0,3.53,4.95,2.8,4.95,4.65,0,.71-.71,1-1.62,1A7.23,7.23,0,0,1,26.39,30l-.27,2.64"/>
          <path class="cls-2" d="M57.92,30.71a3.47,3.47,0,0,1-.77.13A1.1,1.1,0,0,1,56,29.59V26.88h1.76v-2H56V22.27h-2.8v2.59H51.94v2h1.22v3.18c0,1.75.81,3,2.88,3a8.37,8.37,0,0,0,1.53-.15l.34-2.2"/>
          <path class="cls-2" d="M16.24,27.51a6.14,6.14,0,0,1-5.69,6.09H4.07L0,37.65H10.48A6.8,6.8,0,0,0,17,31.05a6.59,6.59,0,0,0-.79-3.47v-.07m-10.8,3A5.39,5.39,0,0,0,10,33.08a6.07,6.07,0,0,1-1.91-2.56Zm4.72,2.1a7.25,7.25,0,0,0,1.57-2.1H8.58a7,7,0,0,0,1.58,2.1M7.87,30.07a7.4,7.4,0,0,1-.4-2.29H4.53a6,6,0,0,0,.65,2.29Zm4.05,0a9.23,9.23,0,0,0,.45-2.29H7.93a9.26,9.26,0,0,0,.45,2.29Zm.33.45a6.85,6.85,0,0,1-1.9,2.56,5.23,5.23,0,0,0,4.45-2.56Zm2.87-.45a5.38,5.38,0,0,0,.65-2.29H12.84a7.16,7.16,0,0,1-.39,2.29ZM8.06,24.49A5.84,5.84,0,0,1,10,21.94a5.57,5.57,0,0,0-4.53,2.55Zm2.1-2a6.81,6.81,0,0,0-1.58,2h3.15a7,7,0,0,0-1.57-2M5.18,25a5.75,5.75,0,0,0-.65,2.29H7.47A6.61,6.61,0,0,1,7.87,25Zm3.2,0a8.87,8.87,0,0,0-.45,2.29h4.45A8.85,8.85,0,0,0,11.93,25Zm6.43-.53a5.41,5.41,0,0,0-4.45-2.55,6.56,6.56,0,0,1,1.9,2.55ZM12.45,25a6.45,6.45,0,0,1,.39,2.29h2.94A5.21,5.21,0,0,0,15.13,25ZM4.07,27.44A6.7,6.7,0,0,1,3.27,24a6.82,6.82,0,0,1,6.56-6.63H20.31l-4.07,4.1H9.76a6.14,6.14,0,0,0-5.69,6"/>
          <path class="cls-2" d="M117.56,23.3h.39c.26,0,.48,0,.48-.35s-.25-.32-.48-.32h-.39v.67m-.44-1H118c.56,0,.87.2.87.69a.59.59,0,0,1-.62.63l.63,1h-.45l-.61-1h-.27v1h-.44Zm2.37,1.19a1.57,1.57,0,1,0-1.57,1.68,1.59,1.59,0,0,0,1.57-1.68m-3.65,0a2.08,2.08,0,1,1,2.08,2.08,2.08,2.08,0,0,1-2.08-2.08"/>
        </g>
      </g>
    </g>
  </g>
</svg>
