<svg xmlns="http://www.w3.org/2000/svg" width="120" height="55" viewBox="0 0 120 55">
  <defs>
    <style>
      .cls-1 {
        fill: none;
      }

      .cls-2 {
        fill: #777;
      }

      .cls-3 {
        fill: #ff4100;
      }

      .cls-4 {
        fill: #6ebd00;
      }

      .cls-5 {
        fill: #00a8f6;
      }

      .cls-6 {
        fill: #ffb500;
      }
    </style>
  </defs>
  <title>logo-microsoft</title>
  <g id="Layer_2" data-name="Layer 2">
    <g id="Layer_1-2" data-name="Layer 1">
      <g>
        <rect class="cls-1" width="120" height="55"/>
        <g>
          <path id="path5056" class="cls-2" d="M119.67,26.28V24.19h-2.61V20.92l-.09,0-2.45.75h0v2.47H110.6V22.81a2.13,2.13,0,0,1,.43-1.45,1.49,1.49,0,0,1,1.19-.48,2.91,2.91,0,0,1,1.13.25l.09,0V19h0a4.43,4.43,0,0,0-1.44-.2,4.16,4.16,0,0,0-2.06.5,3.49,3.49,0,0,0-1.41,1.4,4.12,4.12,0,0,0-.5,2v1.51h-1.8v2.1H108v8.84h2.61V26.28h3.87V31.9c0,2.31,1.1,3.49,3.24,3.49a5.35,5.35,0,0,0,1.11-.13,2.89,2.89,0,0,0,.81-.25l0,0V32.87l-.1.07a2,2,0,0,1-.52.23,2.06,2.06,0,0,1-.52.09,1.4,1.4,0,0,1-1.11-.4,2.18,2.18,0,0,1-.36-1.41V26.28Zm-19.29,7a2.76,2.76,0,0,1-2.22-.94,3.94,3.94,0,0,1-.8-2.63,4.12,4.12,0,0,1,.8-2.7,2.75,2.75,0,0,1,2.19-.95,2.67,2.67,0,0,1,2.14.9,4,4,0,0,1,.79,2.68,4.25,4.25,0,0,1-.74,2.71,2.57,2.57,0,0,1-2.16.92m.12-9.34a5.74,5.74,0,0,0-4.26,1.57,5.9,5.9,0,0,0-1.54,4.29,5.61,5.61,0,0,0,1.5,4.1,5.44,5.44,0,0,0,4,1.51,5.57,5.57,0,0,0,4.18-1.59,5.88,5.88,0,0,0,1.54-4.25,5.71,5.71,0,0,0-1.44-4.12,5.28,5.28,0,0,0-4-1.51m-10,0a4.67,4.67,0,0,0-3,.94,3,3,0,0,0-1.18,2.42,3.37,3.37,0,0,0,.25,1.36,2.74,2.74,0,0,0,.77,1,7,7,0,0,0,1.58.89,11.77,11.77,0,0,1,1.32.61,1.82,1.82,0,0,1,.58.47,1.08,1.08,0,0,1,.16.62c0,.74-.55,1.1-1.69,1.1a4.61,4.61,0,0,1-1.42-.27,5.24,5.24,0,0,1-1.45-.74l-.1-.08v2.51l0,0a6.37,6.37,0,0,0,1.39.43,7.19,7.19,0,0,0,1.48.17,5,5,0,0,0,3.19-.94A3,3,0,0,0,93.57,32a2.9,2.9,0,0,0-.63-1.88,5.49,5.49,0,0,0-2.17-1.39,5.63,5.63,0,0,1-1.55-.81,1.12,1.12,0,0,1-.31-.84.94.94,0,0,1,.39-.79A1.78,1.78,0,0,1,90.41,26a4.35,4.35,0,0,1,1.32.21,4.44,4.44,0,0,1,1.15.53l.1.07V24.4l0,0a5.35,5.35,0,0,0-1.17-.32,7.74,7.74,0,0,0-1.28-.13m-11,9.34a2.76,2.76,0,0,1-2.22-.94,3.94,3.94,0,0,1-.8-2.63,4.12,4.12,0,0,1,.8-2.7,2.72,2.72,0,0,1,2.19-.95,2.67,2.67,0,0,1,2.14.9,4,4,0,0,1,.79,2.68,4.25,4.25,0,0,1-.74,2.71,2.6,2.6,0,0,1-2.16.92m.12-9.34a5.74,5.74,0,0,0-4.26,1.57,5.9,5.9,0,0,0-1.54,4.29,5.61,5.61,0,0,0,1.5,4.1,5.44,5.44,0,0,0,4,1.51,5.57,5.57,0,0,0,4.18-1.59,5.88,5.88,0,0,0,1.54-4.25,5.71,5.71,0,0,0-1.44-4.12,5.3,5.3,0,0,0-4-1.51m-9.76,2.16V24.19H67.3V35.14h2.57v-5.6a3.89,3.89,0,0,1,.65-2.32,2,2,0,0,1,1.66-.88,2.79,2.79,0,0,1,.77.12,2.25,2.25,0,0,1,.6.24l.1.08V24.17l0,0a2.63,2.63,0,0,0-1-.15,2.66,2.66,0,0,0-1.72.61,3.48,3.48,0,0,0-1,1.47S69.87,26.09,69.87,26.09Zm-7.18-2.16a6.4,6.4,0,0,0-3.13.75,5,5,0,0,0-2.07,2.12,6.7,6.7,0,0,0-.7,3.14,5.72,5.72,0,0,0,.69,2.82,4.9,4.9,0,0,0,1.93,2,5.78,5.78,0,0,0,2.82.68,6.15,6.15,0,0,0,3.11-.73l0,0V32.29l-.1.08A5,5,0,0,1,64,33a3.7,3.7,0,0,1-1.24.24,3.18,3.18,0,0,1-2.41-.94,3.65,3.65,0,0,1-.89-2.6,3.78,3.78,0,0,1,.92-2.67,3.15,3.15,0,0,1,2.41-1,4.12,4.12,0,0,1,2.45.85l.1.08V24.5l0,0a4.3,4.3,0,0,0-1.19-.4,7,7,0,0,0-1.44-.15M55,24.19H52.44V35.14H55Zm-1.26-4.66a1.52,1.52,0,0,0-1.1.43A1.44,1.44,0,0,0,52.2,21a1.38,1.38,0,0,0,.45,1.05,1.56,1.56,0,0,0,1.1.42,1.59,1.59,0,0,0,1.11-.42A1.39,1.39,0,0,0,55.31,21,1.42,1.42,0,0,0,54.86,20a1.51,1.51,0,0,0-1.11-.44m-6.42,3.86V35.14H50V19.86H46.33L41.71,31.2,37.23,19.86H33.45V35.13h2.47V23.38H36l4.73,11.75h1.86l4.66-11.75Z"/>
          <path id="path5058" class="cls-3" d="M12.43,26.87H.32V14.76H12.43Z"/>
          <path id="path5060" class="cls-4" d="M25.8,26.87H13.69V14.76H25.8V26.87Z"/>
          <path id="path5062" class="cls-5" d="M12.43,40.24H.32V28.13H12.43Z"/>
          <path id="path5064" class="cls-6" d="M25.8,40.24H13.69V28.13H25.8V40.24Z"/>
        </g>
      </g>
    </g>
  </g>
</svg>
