<svg xmlns="http://www.w3.org/2000/svg" width="120" height="55" viewBox="0 0 120 55">
  <defs>
    <style>
      .cls-1 {
        fill: none;
      }

      .cls-2 {
        fill: #88c029;
      }

      .cls-3 {
        fill: #4e8f30;
      }

      .cls-4 {
        fill: #fff;
      }
    </style>
  </defs>
  <title>logo-shopify</title>
  <g id="Layer_2" data-name="Layer 2">
    <g id="Layer_1-2" data-name="Layer 1">
      <g>
        <rect class="cls-1" width="120" height="55"/>
        <g>
          <g>
            <path class="cls-2" d="M25.89,16.87a.28.28,0,0,0-.26-.26L23,16.41l-2-2a.74.74,0,0,0-.73-.07l-1,.33c-.6-1.72-1.66-3.25-3.51-3.25h-.13a2.37,2.37,0,0,0-1.72-1c-4.31-.07-6.36,5.37-7,8.08-1.66.53-2.85.86-3,.93-.93.26-1,.33-1.06,1.19C2.77,21.31.32,40.18.32,40.18l18.94,3.51,10.27-2.25C29.53,41.51,26,17.07,25.89,16.87ZM18.21,15c-.46.13-1,.33-1.59.53v-.33a11.83,11.83,0,0,0-.4-2.65C17.15,12.7,17.81,13.76,18.21,15ZM15,12.76a7.82,7.82,0,0,1,.46,2.91v.2c-1.06.33-2.19.66-3.31,1.06C12.77,14.42,14,13.23,15,12.76Zm-1.26-1.19a.75.75,0,0,1,.53.2c-1.39.66-2.85,2.25-3.44,5.56-.93.26-1.79.53-2.65.79C8.93,15.61,10.66,11.57,13.77,11.57Z"/>
            <path class="cls-3" d="M25.62,16.6,23,16.41l-2-2a.5.5,0,0,0-.26-.13L19.27,43.69l10.27-2.25S25.89,17,25.89,16.87A.28.28,0,0,0,25.62,16.6Z"/>
            <path class="cls-4" d="M15.76,22.3,14.5,26.08a5.86,5.86,0,0,0-2.45-.6c-2,0-2.12,1.26-2.12,1.59,0,1.72,4.5,2.38,4.5,6.42,0,3.18-2,5.23-4.7,5.23a6.5,6.5,0,0,1-4.9-2.05l.79-2.91A6.31,6.31,0,0,0,8.8,35.22,1.27,1.27,0,0,0,10.13,34c0-2.25-3.71-2.32-3.71-6,0-3.11,2.25-6.09,6.76-6.09A5.87,5.87,0,0,1,15.76,22.3Z"/>
          </g>
          <g>
            <path id="s" d="M41.52,29.39c-1-.53-1.52-1-1.52-1.66s.73-1.32,1.85-1.32a7,7,0,0,1,2.52.53l.93-2.85s-.86-.66-3.38-.66c-3.51,0-6,2.05-6,4.84,0,1.59,1.13,2.85,2.65,3.71,1.26.73,1.66,1.19,1.66,1.92s-.6,1.39-1.79,1.39a7.91,7.91,0,0,1-3.31-.86l-1,2.85a7.5,7.5,0,0,0,4,1c3.64,0,6.23-1.79,6.23-5C44.43,31.51,43.11,30.32,41.52,29.39Z"/>
            <path id="h" d="M56,23.36a5.67,5.67,0,0,0-4.31,2.12h-.07l1.52-8.15h-4L45.23,38h4l1.32-7.09c.53-2.65,1.92-4.31,3.18-4.31.93,0,1.26.6,1.26,1.52a8.22,8.22,0,0,1-.2,1.79L53.31,38h4l1.59-8.35A12.82,12.82,0,0,0,59.21,27C59.34,24.75,58.15,23.36,56,23.36Z"/>
            <path id="o" d="M68.48,23.36c-4.84,0-8.08,4.37-8.08,9.27A5.26,5.26,0,0,0,66,38.26c4.77,0,8-4.31,8-9.27C74,26.08,72.25,23.36,68.48,23.36Zm-2,11.86c-1.39,0-2-1.19-2-2.65,0-2.32,1.19-6.09,3.38-6.09,1.46,0,1.92,1.26,1.92,2.45C69.8,31.38,68.61,35.22,66.49,35.22Z"/>
            <path id="p" d="M84.31,23.36A5.65,5.65,0,0,0,80,25.75h-.07l.26-2.19H76.62c-.2,1.46-.53,3.71-.79,5.37L73,43.76h4l1.13-6h.07a4.86,4.86,0,0,0,2.38.53c4.77,0,7.88-4.84,7.88-9.8C88.48,25.75,87.29,23.36,84.31,23.36ZM80.4,35.22a2.45,2.45,0,0,1-1.66-.6l.66-3.78c.46-2.52,1.79-4.17,3.18-4.17s1.59,1.13,1.59,2.25C84.24,31.51,82.72,35.22,80.4,35.22Z"/>
            <path id="dot" d="M94.24,17.53a2.3,2.3,0,0,0-2.32,2.32,1.92,1.92,0,0,0,1.92,2.05h.07a2.32,2.32,0,0,0,2.38-2.32A2,2,0,0,0,94.24,17.53Z"/>
            <polygon id="i" points="88.61 38 92.65 38 95.37 23.69 91.33 23.69 88.61 38"/>
            <path id="f" d="M105.7,23.63h-2.78l.13-.66c.26-1.39,1.06-2.58,2.38-2.58a3.94,3.94,0,0,1,1.26.2l.79-3.18a5.75,5.75,0,0,0-2.19-.33,6.13,6.13,0,0,0-4,1.32A7.27,7.27,0,0,0,99,23l-.13.66H97l-.6,3h1.85L96.16,38h4l2.12-11.33h2.78Z"/>
            <path id="y" d="M115.37,23.69s-2.52,6.36-3.64,9.87h-.07c-.07-1.13-1-9.87-1-9.87h-4.24l2.45,13.18a1.09,1.09,0,0,1-.07.66A7,7,0,0,1,106.63,40a8.25,8.25,0,0,1-2.32,1.13l1.13,3.44a10.05,10.05,0,0,0,4-2.19,26.15,26.15,0,0,0,5.3-8l5-10.6h-4.31Z"/>
          </g>
        </g>
      </g>
    </g>
  </g>
</svg>
