<svg xmlns="http://www.w3.org/2000/svg" width="120" height="55" viewBox="0 0 120 55">
  <defs>
    <style>
      .cls-1 {
        fill: none;
      }

      .cls-2 {
        fill: #d28d49;
      }

      .cls-3 {
        fill: #ff0006;
      }
    </style>
  </defs>
  <title>logo-nrf</title>
  <g id="Layer_2" data-name="Layer 2">
    <g id="Layer_1-2" data-name="Layer 1">
      <g>
        <rect class="cls-1" width="120" height="55"/>
        <g>
          <path id="path22" class="cls-2" d="M0,17.59,7.35,12l7.35,5.58L7.35,7.3,0,17.59"/>
          <path id="path60" class="cls-3" d="M40.69,44.52a1.77,1.77,0,0,1-.67.63,3.82,3.82,0,0,1-1.4.42,16,16,0,0,1-1.91.11h-1c0-.28,0-.74,0-1.4q0-1.58,0-3.15c0-.45,0-1.17,0-2.17s0-1.74,0-2.53h1.15a7.34,7.34,0,0,1,1.2.09,3.31,3.31,0,0,1,.89.26,1.57,1.57,0,0,1,.63.54,1.36,1.36,0,0,1,.22.79,1.54,1.54,0,0,1-.2.8,1.93,1.93,0,0,1-.54.6,2.67,2.67,0,0,1-.82.38,4.68,4.68,0,0,1-1.12.15h-.34v1.59l0,.12h1.72a3.23,3.23,0,0,1,1.08.17,2,2,0,0,1,.73.43,2.13,2.13,0,0,1,.43.61,1.74,1.74,0,0,1,.14.71,1.72,1.72,0,0,1-.23.91m1.92-2.22a3,3,0,0,0-.64-.94,3.4,3.4,0,0,0-1.12-.74,4.48,4.48,0,0,0-.5-.17l-.14,0,.12-.08a3.59,3.59,0,0,0,.76-.7,2.81,2.81,0,0,0,.65-1.82,2.66,2.66,0,0,0-.53-1.66,3.24,3.24,0,0,0-1.41-1,6.35,6.35,0,0,0-1.39-.36,11.43,11.43,0,0,0-1.77-.13c-.56,0-1.14,0-1.72,0l-1,0h-.23V35s0,.59,0,1.64,0,2.47,0,4.24q0,1.42,0,3c0,1.06,0,2.17,0,3.31v.23l.23,0,1.08,0c.63,0,1.26,0,1.86,0a11.54,11.54,0,0,0,2.22-.19,6.8,6.8,0,0,0,1.81-.62,3.75,3.75,0,0,0,1.46-1.28,3.5,3.5,0,0,0,.29-3m-36.76-2H4.07c0-.59,0-2.48,0-2.48s0-1.16,0-1.44H9v0h1.13l.91-1.8-2.3,0H6.07l-3.76,0H2l0,2.57,0,3.66v2.74l0,3.82h2l0-3.61s0-1.39,0-1.68H8.61l1.63,0V40.32l-1.79,0H5.84m42.09,1.22,4.92,6.13,1.66-1.38L50.69,41.8A14.06,14.06,0,0,0,52,40.64a3.33,3.33,0,0,0,.88-2.35,3.24,3.24,0,0,0-.58-1.91,3.77,3.77,0,0,0-1.6-1.26,5.69,5.69,0,0,0-1.54-.41,13.17,13.17,0,0,0-1.58-.09H45.84l-1.2,0v.28l.05,4.5v1.69l0,3.93,0,2.4h2.08l0-3V39.2l0-2.79h.39c.85,0,1.33,0,1.33,0a3.48,3.48,0,0,1,1.05.24,1.85,1.85,0,0,1,1.24,1.82,2.67,2.67,0,0,1-.22,1.17,2.76,2.76,0,0,1-.55.75,4.05,4.05,0,0,1-.94.67,7.92,7.92,0,0,1-1.08.46m-15.54,4h-6c0-.22,0-1.37,0-1.37q0-1.58,0-3.94,0-1,0-2.48t0-2.67v-.46H24.35v.46q0,.54,0,1.88c0,.89,0,2.2,0,3.89q0,1.53,0,3.11t0,3.13v.31h.31l6.8.05.94-1.89m49.15,1.89v-.31c0-.36,0-1,0-2s0-2,0-3.31H74.92c0,1.51,0,2.68,0,3.48s0,1.46,0,1.82v.31H72.85v-.31c0-.36,0-1,0-1.91s0-2.48,0-4.64q0-1,0-2.41c0-.94,0-3.51,0-3.51H75v.45c0,.9,0,1.8,0,2.69s0,1.49,0,2.19h6.67c0-.7,0-1.43,0-2.19s0-1.77,0-2.69v-.45h2.1v.45q0,1.36,0,3.14c0,1.18,0,2.15,0,2.9,0,1.79,0,3.11,0,4s0,1.58,0,1.94v.31h-2.1m-25.44,0,0-.28c0-.36,0-1,0-1.92s0-2.26,0-4c0-.68,0-1.58,0-2.68s0-2.46,0-3.63v-.31h2.1V35c0,.86,0,2,0,3.16s0,2.06,0,2.78c0,1.82,0,3.24,0,4.22s0,1.64,0,2l0,.28H56.11m-38.72.25a6.49,6.49,0,0,1-2.22-.35,4.75,4.75,0,0,1-1.66-1,4.07,4.07,0,0,1-1-1.5,5.38,5.38,0,0,1-.33-1.95c0-.36,0-.77,0-1.26s0-1.06,0-1.74,0-1.21,0-2,0-1.71,0-2.86v-.44h2.11v.45c0,.14,0,.66,0,1.52s0,2,0,3.43c0,.43,0,.88,0,1.34s0,.94,0,1.42A2.87,2.87,0,0,0,15,45.06a3.39,3.39,0,0,0,2.35.77,3.46,3.46,0,0,0,2.41-.73,3,3,0,0,0,.77-2.31c0-.49,0-1,0-1.42s0-.91,0-1.34c0-1.41,0-2.58,0-3.48s0-1.4,0-1.49v-.44h2.1v.44c0,1.14,0,2.11,0,2.86s0,1.4,0,2,0,1.26,0,1.74,0,.9,0,1.26a5.34,5.34,0,0,1-.33,1.95,4.07,4.07,0,0,1-1,1.5,4.76,4.76,0,0,1-1.65,1,6.43,6.43,0,0,1-2.23.36m74.81-.24,0-2.48V39s0-2,0-2.57h4.24l.92-1.83-6.19,0-6.24,0,.92,1.83h4.28s0,.33,0,2.57V45l0,2.48h2.08M106.43,24.5l-.83-.37c-.9-.37-2.13-.88-2.13-2.05,0-.86.67-1.72,2.18-1.72a5.31,5.31,0,0,1,3.08.91v-2a6.89,6.89,0,0,0-3.1-.7c-2.53,0-4.37,1.52-4.37,3.63a3.26,3.26,0,0,0,.8,2.14,5.56,5.56,0,0,0,2.2,1.46l.83.35a4.07,4.07,0,0,1,1.6.95,1.8,1.8,0,0,1,.4,1.12,2.14,2.14,0,0,1-2.46,2,7.07,7.07,0,0,1-3.47-1.06v2.06a9.42,9.42,0,0,0,3.47.76c2.78,0,4.72-1.58,4.72-3.85s-1.76-3.09-2.92-3.64m-76.2,1.35L35.14,32,36.8,30.6,33,26.08a14.08,14.08,0,0,0,1.32-1.16,3.33,3.33,0,0,0,.88-2.35,3.23,3.23,0,0,0-.58-1.91A3.8,3.8,0,0,0,33,19.41,5.67,5.67,0,0,0,31.46,19a13.17,13.17,0,0,0-1.58-.09H28.12l-1.2,0v.28l.05,4.5V25.4l0,3.92,0,2.4H29l0-3V23.48l0-2.79h.39c.86,0,1.33,0,1.33,0a3.45,3.45,0,0,1,1.05.24,1.91,1.91,0,0,1,.92.7A1.94,1.94,0,0,1,33,22.8,2.67,2.67,0,0,1,32.79,24a2.8,2.8,0,0,1-.55.75,4.12,4.12,0,0,1-.94.67,8,8,0,0,1-1.08.46m26.36,1.77a4.85,4.85,0,0,1-1,1.59,3.61,3.61,0,0,1-1.12.79,3.18,3.18,0,0,1-1.31.27A3.12,3.12,0,0,1,51.84,30a3.48,3.48,0,0,1-1.07-.75,4.68,4.68,0,0,1-1-1.66,6.45,6.45,0,0,1-.37-2.25,6.39,6.39,0,0,1,.37-2.15,4.76,4.76,0,0,1,1-1.71,3.5,3.5,0,0,1,1.11-.81,3.25,3.25,0,0,1,1.32-.27,3.16,3.16,0,0,1,1.31.27,3.55,3.55,0,0,1,1.07.76,4.57,4.57,0,0,1,1.07,1.81A7.28,7.28,0,0,1,57,25.46a5.74,5.74,0,0,1-.39,2.15m2-5a6.41,6.41,0,0,0-1.33-2.24,5.49,5.49,0,0,0-8.18.13,6.56,6.56,0,0,0-1.26,2.16,8,8,0,0,0-.42,2.65,7.82,7.82,0,0,0,.53,2.94,6.47,6.47,0,0,0,1.4,2.18,5.32,5.32,0,0,0,1.78,1.21,5.62,5.62,0,0,0,4.25,0,5.74,5.74,0,0,0,1.89-1.36,6.42,6.42,0,0,0,1.29-2.13,7.81,7.81,0,0,0,.5-2.81,8.26,8.26,0,0,0-.45-2.72m-35.46,5a4.84,4.84,0,0,1-1,1.59A3.62,3.62,0,0,1,21,30a3.19,3.19,0,0,1-1.31.27A3.11,3.11,0,0,1,18.33,30a3.49,3.49,0,0,1-1.07-.75,4.7,4.7,0,0,1-1-1.66,6.46,6.46,0,0,1-.37-2.25,6.36,6.36,0,0,1,.37-2.15,4.75,4.75,0,0,1,1-1.71,3.49,3.49,0,0,1,1.11-.81,3.25,3.25,0,0,1,1.32-.27,3.16,3.16,0,0,1,1.31.27,3.55,3.55,0,0,1,1.07.76,4.57,4.57,0,0,1,1.07,1.81,7.26,7.26,0,0,1,.36,2.24,5.74,5.74,0,0,1-.39,2.15m2-5h0a6.41,6.41,0,0,0-1.33-2.24,5.49,5.49,0,0,0-8.18.13,6.57,6.57,0,0,0-1.26,2.16,8,8,0,0,0-.42,2.65,7.83,7.83,0,0,0,.53,2.94,6.46,6.46,0,0,0,1.4,2.18,5.31,5.31,0,0,0,1.78,1.21,5.62,5.62,0,0,0,4.25,0,5.73,5.73,0,0,0,1.89-1.36A6.4,6.4,0,0,0,25,28.13a7.83,7.83,0,0,0,.49-2.81A8.27,8.27,0,0,0,25,22.6m72.69,5a4.82,4.82,0,0,1-1,1.59A3.61,3.61,0,0,1,95.6,30a3.18,3.18,0,0,1-1.31.27A3.11,3.11,0,0,1,93,30a3.47,3.47,0,0,1-1.07-.75,4.69,4.69,0,0,1-1-1.66,6.48,6.48,0,0,1-.37-2.25,6.38,6.38,0,0,1,.37-2.15,4.73,4.73,0,0,1,1-1.71A3.49,3.49,0,0,1,93,20.65a3.24,3.24,0,0,1,1.32-.27,3.15,3.15,0,0,1,1.31.27,3.53,3.53,0,0,1,1.07.76,4.57,4.57,0,0,1,1.07,1.81,7.29,7.29,0,0,1,.36,2.24,5.72,5.72,0,0,1-.39,2.15m2-5a6.41,6.41,0,0,0-1.33-2.24,5.49,5.49,0,0,0-8.18.13,6.58,6.58,0,0,0-1.26,2.16,8,8,0,0,0-.42,2.65A7.81,7.81,0,0,0,89,28.24a6.47,6.47,0,0,0,1.4,2.18,5.32,5.32,0,0,0,1.78,1.21,5.62,5.62,0,0,0,4.25,0,5.73,5.73,0,0,0,1.89-1.36,6.43,6.43,0,0,0,1.3-2.13,7.83,7.83,0,0,0,.49-2.81,8.25,8.25,0,0,0-.45-2.72M42.81,31.72l0-2.48V23.31s0-2,0-2.57H47L48,18.93l-6.19,0-6.24,0,.92,1.84h4.28s0,.33,0,2.57v5.93l0,2.48h2.08m68.1-12.61v.11l0,3.53v2.74l0,3.66,0,2.57h.29l3.76,0,2.8,0h1.32l.91-1.79-2.06,0H114l-1,0c0-.28,0-1.43,0-1.43s0-1.89,0-2.48h4.38l1.79,0V24.21l-1.63,0H113c0-.29,0-1.68,0-1.68s0-1.33,0-1.81h4.71l1.43,0V18.93h-8.22v.18M60.5,18.92v12.8h2.05l-.08-9.52L71.1,32v-13H69s.11,6.64.12,7.54c-.59-.71-6.64-7.54-6.64-7.54h-2M2,18.92v12.8h2L4,22.2,12.62,32v-13H10.57s.11,6.64.12,7.54c-.59-.71-6.64-7.54-6.64-7.54H2m80.17,6.92L87.11,32l1.66-1.37-3.83-4.52a14.13,14.13,0,0,0,1.32-1.16,3.33,3.33,0,0,0,.88-2.35,3.24,3.24,0,0,0-.58-1.91A3.8,3.8,0,0,0,85,19.41,5.68,5.68,0,0,0,83.42,19a13.19,13.19,0,0,0-1.58-.09H80.09l-1.2,0v.28l.05,4.5V25.4l0,3.92,0,2.4H81l0-3V23.47l0-2.79h.39c.86,0,1.33,0,1.33,0a3.46,3.46,0,0,1,1.05.24,1.92,1.92,0,0,1,.92.7A1.94,1.94,0,0,1,85,22.8,2.65,2.65,0,0,1,84.76,24a2.8,2.8,0,0,1-.55.75,4.15,4.15,0,0,1-.94.67,8,8,0,0,1-1.08.46M66.52,47.65A6.25,6.25,0,0,1,60,41.11a6.58,6.58,0,0,1,6.95-6.81,9.31,9.31,0,0,1,3.7.75l0,0,0,1.92-.09-.05A7.65,7.65,0,0,0,67,36a4.61,4.61,0,0,0-5,5C62,44,63.91,46,66.95,46a4.67,4.67,0,0,0,2.21-.42l0,0v-5h1.88v6l0,0a10,10,0,0,1-4.52,1.09"/>
        </g>
      </g>
    </g>
  </g>
</svg>
