<svg width="561" height="201" viewBox="0 0 561 201" xmlns="http://www.w3.org/2000/svg" xmlns:xlink="http://www.w3.org/1999/xlink"><title>Group 2</title><desc>Created using Figma</desc><use xlink:href="#a" transform="translate(1)" fill="#EF0919"/><use xlink:href="#b" transform="translate(1 35.22)" fill="#EF0919"/><use xlink:href="#c" transform="translate(1 71.19)" fill="#EF0919"/><use xlink:href="#d" transform="translate(1 106.41)" fill="#EF0919"/><use xlink:href="#e" transform="translate(1 142.38)" fill="#EF0919"/><use xlink:href="#f" transform="translate(1 177.59)" fill="#EF0919"/><defs><path id="a" d="M-.5 0v23.34h1V0h-1zm1 23.34V0h-1v23.34h1zM22.32 0v23.34h1V0h-1zm1 23.34V0h-1v23.34h1zM45.13 0v23.34h1V0h-1zm1 23.34V0h-1v23.34h1zM67.95 0v23.34h1V0h-1zm1 23.34V0h-1v23.34h1zM90.77 0v23.34h1V0h-1zm1 23.34V0h-1v23.34h1zM113.58 0v23.34h1V0h-1zm1 23.34V0h-1v23.34h1zM136.4 0v23.34h1V0h-1zm1 23.34V0h-1v23.34h1zM159.21 0v23.34h1V0h-1zm1 23.34V0h-1v23.34h1zM182.03 0v23.34h1V0h-1zm1 23.34V0h-1v23.34h1zM204.85 0v23.34h1V0h-1zm1 23.34V0h-1v23.34h1zM227.66 0v23.34h1V0h-1zm1 23.34V0h-1v23.34h1zM250.48 0v23.34h1V0h-1zm1 23.34V0h-1v23.34h1zM273.3 0v23.34h1V0h-1zm1 23.34V0h-1v23.34h1zM296.11 0v23.34h1V0h-1zm1 23.34V0h-1v23.34h1zM318.93 0v23.34h1V0h-1zm1 23.34V0h-1v23.34h1zM341.74 0v23.34h1V0h-1zm1 23.34V0h-1v23.34h1zM364.56 0v23.34h1V0h-1zm1 23.34V0h-1v23.34h1zM387.38 0v23.34h1V0h-1zm1 23.34V0h-1v23.34h1zM410.19 0v23.34h1V0h-1zm1 23.34V0h-1v23.34h1zM433.01 0v23.34h1V0h-1zm1 23.34V0h-1v23.34h1zM455.83 0v23.34h1V0h-1zm1 23.34V0h-1v23.34h1zM478.64 0v23.34h1V0h-1zm1 23.34V0h-1v23.34h1zM501.46 0v23.34h1V0h-1zm1 23.34V0h-1v23.34h1zM524.28 0v23.34h1V0h-1zm1 23.34V0h-1v23.34h1zM547.09 0v23.34h1V0h-1zm1 23.34V0h-1v23.34h1zM10.91 0v23.34h1V0h-1zm1 23.34V0h-1v23.34h1zM33.72 0v23.34h1V0h-1zm1 23.34V0h-1v23.34h1zM56.54 0v23.34h1V0h-1zm1 23.34V0h-1v23.34h1zM79.36 0v23.34h1V0h-1zm1 23.34V0h-1v23.34h1zM102.17 0v23.34h1V0h-1zm1 23.34V0h-1v23.34h1zM124.99 0v23.34h1V0h-1zm1 23.34V0h-1v23.34h1zM147.81 0v23.34h1V0h-1zm1 23.34V0h-1v23.34h1zM170.62 0v23.34h1V0h-1zm1 23.34V0h-1v23.34h1zM193.44 0v23.34h1V0h-1zm1 23.34V0h-1v23.34h1zM216.26 0v23.34h1V0h-1zm1 23.34V0h-1v23.34h1zM239.07 0v23.34h1V0h-1zm1 23.34V0h-1v23.34h1zM261.89 0v23.34h1V0h-1zm1 23.34V0h-1v23.34h1zM284.7 0v23.34h1V0h-1zm1 23.34V0h-1v23.34h1zM307.52 0v23.34h1V0h-1zm1 23.34V0h-1v23.34h1zM330.34 0v23.34h1V0h-1zm1 23.34V0h-1v23.34h1zM353.15 0v23.34h1V0h-1zm1 23.34V0h-1v23.34h1zM375.97 0v23.34h1V0h-1zm1 23.34V0h-1v23.34h1zM398.79 0v23.34h1V0h-1zm1 23.34V0h-1v23.34h1zM421.6 0v23.34h1V0h-1zm1 23.34V0h-1v23.34h1zM444.42 0v23.34h1V0h-1zm1 23.34V0h-1v23.34h1zM467.23 0v23.34h1V0h-1zm1 23.34V0h-1v23.34h1zM490.05 0v23.34h1V0h-1zm1 23.34V0h-1v23.34h1zM512.87 0v23.34h1V0h-1zm1 23.34V0h-1v23.34h1zM535.68 0v23.34h1V0h-1zm1 23.34V0h-1v23.34h1zM558.5 0v23.34h1V0h-1z"/><path id="b" d="M-.5 0v23.34h1V0h-1zm1 23.34V0h-1v23.34h1zM22.32 0v23.34h1V0h-1zm1 23.34V0h-1v23.34h1zM45.13 0v23.34h1V0h-1zm1 23.34V0h-1v23.34h1zM67.95 0v23.34h1V0h-1zm1 23.34V0h-1v23.34h1zM90.77 0v23.34h1V0h-1zm1 23.34V0h-1v23.34h1zM113.58 0v23.34h1V0h-1zm1 23.34V0h-1v23.34h1zM136.4 0v23.34h1V0h-1zm1 23.34V0h-1v23.34h1zM159.21 0v23.34h1V0h-1zm1 23.34V0h-1v23.34h1zM182.03 0v23.34h1V0h-1zm1 23.34V0h-1v23.34h1zM204.85 0v23.34h1V0h-1zm1 23.34V0h-1v23.34h1zM227.66 0v23.34h1V0h-1zm1 23.34V0h-1v23.34h1zM250.48 0v23.34h1V0h-1zm1 23.34V0h-1v23.34h1zM273.3 0v23.34h1V0h-1zm1 23.34V0h-1v23.34h1zM296.11 0v23.34h1V0h-1zm1 23.34V0h-1v23.34h1zM318.93 0v23.34h1V0h-1zm1 23.34V0h-1v23.34h1zM341.74 0v23.34h1V0h-1zm1 23.34V0h-1v23.34h1zM364.56 0v23.34h1V0h-1zm1 23.34V0h-1v23.34h1zM387.38 0v23.34h1V0h-1zm1 23.34V0h-1v23.34h1zM410.19 0v23.34h1V0h-1zm1 23.34V0h-1v23.34h1zM433.01 0v23.34h1V0h-1zm1 23.34V0h-1v23.34h1zM455.83 0v23.34h1V0h-1zm1 23.34V0h-1v23.34h1zM478.64 0v23.34h1V0h-1zm1 23.34V0h-1v23.34h1zM501.46 0v23.34h1V0h-1zm1 23.34V0h-1v23.34h1zM524.28 0v23.34h1V0h-1zm1 23.34V0h-1v23.34h1zM547.09 0v23.34h1V0h-1zm1 23.34V0h-1v23.34h1zM10.91 0v23.34h1V0h-1zm1 23.34V0h-1v23.34h1zM33.72 0v23.34h1V0h-1zm1 23.34V0h-1v23.34h1zM56.54 0v23.34h1V0h-1zm1 23.34V0h-1v23.34h1zM79.36 0v23.34h1V0h-1zm1 23.34V0h-1v23.34h1zM102.17 0v23.34h1V0h-1zm1 23.34V0h-1v23.34h1zM124.99 0v23.34h1V0h-1zm1 23.34V0h-1v23.34h1zM147.81 0v23.34h1V0h-1zm1 23.34V0h-1v23.34h1zM170.62 0v23.34h1V0h-1zm1 23.34V0h-1v23.34h1zM193.44 0v23.34h1V0h-1zm1 23.34V0h-1v23.34h1zM216.26 0v23.34h1V0h-1zm1 23.34V0h-1v23.34h1zM239.07 0v23.34h1V0h-1zm1 23.34V0h-1v23.34h1zM261.89 0v23.34h1V0h-1zm1 23.34V0h-1v23.34h1zM284.7 0v23.34h1V0h-1zm1 23.34V0h-1v23.34h1zM307.52 0v23.34h1V0h-1zm1 23.34V0h-1v23.34h1zM330.34 0v23.34h1V0h-1zm1 23.34V0h-1v23.34h1zM353.15 0v23.34h1V0h-1zm1 23.34V0h-1v23.34h1zM375.97 0v23.34h1V0h-1zm1 23.34V0h-1v23.34h1zM398.79 0v23.34h1V0h-1zm1 23.34V0h-1v23.34h1zM421.6 0v23.34h1V0h-1zm1 23.34V0h-1v23.34h1zM444.42 0v23.34h1V0h-1zm1 23.34V0h-1v23.34h1zM467.23 0v23.34h1V0h-1zm1 23.34V0h-1v23.34h1zM490.05 0v23.34h1V0h-1zm1 23.34V0h-1v23.34h1zM512.87 0v23.34h1V0h-1zm1 23.34V0h-1v23.34h1zM535.68 0v23.34h1V0h-1zm1 23.34V0h-1v23.34h1zM558.5 0v23.34h1V0h-1z"/><path id="c" d="M-.5 0v23.34h1V0h-1zm1 23.34V0h-1v23.34h1zM22.32 0v23.34h1V0h-1zm1 23.34V0h-1v23.34h1zM45.13 0v23.34h1V0h-1zm1 23.34V0h-1v23.34h1zM67.95 0v23.34h1V0h-1zm1 23.34V0h-1v23.34h1zM90.77 0v23.34h1V0h-1zm1 23.34V0h-1v23.34h1zM113.58 0v23.34h1V0h-1zm1 23.34V0h-1v23.34h1zM136.4 0v23.34h1V0h-1zm1 23.34V0h-1v23.34h1zM159.21 0v23.34h1V0h-1zm1 23.34V0h-1v23.34h1zM182.03 0v23.34h1V0h-1zm1 23.34V0h-1v23.34h1zM204.85 0v23.34h1V0h-1zm1 23.34V0h-1v23.34h1zM227.66 0v23.34h1V0h-1zm1 23.34V0h-1v23.34h1zM250.48 0v23.34h1V0h-1zm1 23.34V0h-1v23.34h1zM273.3 0v23.34h1V0h-1zm1 23.34V0h-1v23.34h1zM296.11 0v23.34h1V0h-1zm1 23.34V0h-1v23.34h1zM318.93 0v23.34h1V0h-1zm1 23.34V0h-1v23.34h1zM341.74 0v23.34h1V0h-1zm1 23.34V0h-1v23.34h1zM364.56 0v23.34h1V0h-1zm1 23.34V0h-1v23.34h1zM387.38 0v23.34h1V0h-1zm1 23.34V0h-1v23.34h1zM410.19 0v23.34h1V0h-1zm1 23.34V0h-1v23.34h1zM433.01 0v23.34h1V0h-1zm1 23.34V0h-1v23.34h1zM455.83 0v23.34h1V0h-1zm1 23.34V0h-1v23.34h1zM478.64 0v23.34h1V0h-1zm1 23.34V0h-1v23.34h1zM501.46 0v23.34h1V0h-1zm1 23.34V0h-1v23.34h1zM524.28 0v23.34h1V0h-1zm1 23.34V0h-1v23.34h1zM547.09 0v23.34h1V0h-1zm1 23.34V0h-1v23.34h1zM10.91 0v23.34h1V0h-1zm1 23.34V0h-1v23.34h1zM33.72 0v23.34h1V0h-1zm1 23.34V0h-1v23.34h1zM56.54 0v23.34h1V0h-1zm1 23.34V0h-1v23.34h1zM79.36 0v23.34h1V0h-1zm1 23.34V0h-1v23.34h1zM102.17 0v23.34h1V0h-1zm1 23.34V0h-1v23.34h1zM124.99 0v23.34h1V0h-1zm1 23.34V0h-1v23.34h1zM147.81 0v23.34h1V0h-1zm1 23.34V0h-1v23.34h1zM170.62 0v23.34h1V0h-1zm1 23.34V0h-1v23.34h1zM193.44 0v23.34h1V0h-1zm1 23.34V0h-1v23.34h1zM216.26 0v23.34h1V0h-1zm1 23.34V0h-1v23.34h1zM239.07 0v23.34h1V0h-1zm1 23.34V0h-1v23.34h1zM261.89 0v23.34h1V0h-1zm1 23.34V0h-1v23.34h1zM284.7 0v23.34h1V0h-1zm1 23.34V0h-1v23.34h1zM307.52 0v23.34h1V0h-1zm1 23.34V0h-1v23.34h1zM330.34 0v23.34h1V0h-1zm1 23.34V0h-1v23.34h1zM353.15 0v23.34h1V0h-1zm1 23.34V0h-1v23.34h1zM375.97 0v23.34h1V0h-1zm1 23.34V0h-1v23.34h1zM398.79 0v23.34h1V0h-1zm1 23.34V0h-1v23.34h1zM421.6 0v23.34h1V0h-1zm1 23.34V0h-1v23.34h1zM444.42 0v23.34h1V0h-1zm1 23.34V0h-1v23.34h1zM467.23 0v23.34h1V0h-1zm1 23.34V0h-1v23.34h1zM490.05 0v23.34h1V0h-1zm1 23.34V0h-1v23.34h1zM512.87 0v23.34h1V0h-1zm1 23.34V0h-1v23.34h1zM535.68 0v23.34h1V0h-1zm1 23.34V0h-1v23.34h1zM558.5 0v23.34h1V0h-1z"/><path id="d" d="M-.5 0v23.34h1V0h-1zm1 23.34V0h-1v23.34h1zM22.32 0v23.34h1V0h-1zm1 23.34V0h-1v23.34h1zM45.13 0v23.34h1V0h-1zm1 23.34V0h-1v23.34h1zM67.95 0v23.34h1V0h-1zm1 23.34V0h-1v23.34h1zM90.77 0v23.34h1V0h-1zm1 23.34V0h-1v23.34h1zM113.58 0v23.34h1V0h-1zm1 23.34V0h-1v23.34h1zM136.4 0v23.34h1V0h-1zm1 23.34V0h-1v23.34h1zM159.21 0v23.34h1V0h-1zm1 23.34V0h-1v23.34h1zM182.03 0v23.34h1V0h-1zm1 23.34V0h-1v23.34h1zM204.85 0v23.34h1V0h-1zm1 23.34V0h-1v23.34h1zM227.66 0v23.34h1V0h-1zm1 23.34V0h-1v23.34h1zM250.48 0v23.34h1V0h-1zm1 23.34V0h-1v23.34h1zM273.3 0v23.34h1V0h-1zm1 23.34V0h-1v23.34h1zM296.11 0v23.34h1V0h-1zm1 23.34V0h-1v23.34h1zM318.93 0v23.34h1V0h-1zm1 23.34V0h-1v23.34h1zM341.74 0v23.34h1V0h-1zm1 23.34V0h-1v23.34h1zM364.56 0v23.34h1V0h-1zm1 23.34V0h-1v23.34h1zM387.38 0v23.34h1V0h-1zm1 23.34V0h-1v23.34h1zM410.19 0v23.34h1V0h-1zm1 23.34V0h-1v23.34h1zM433.01 0v23.34h1V0h-1zm1 23.34V0h-1v23.34h1zM455.83 0v23.34h1V0h-1zm1 23.34V0h-1v23.34h1zM478.64 0v23.34h1V0h-1zm1 23.34V0h-1v23.34h1zM501.46 0v23.34h1V0h-1zm1 23.34V0h-1v23.34h1zM524.28 0v23.34h1V0h-1zm1 23.34V0h-1v23.34h1zM547.09 0v23.34h1V0h-1zm1 23.34V0h-1v23.34h1zM10.91 0v23.34h1V0h-1zm1 23.34V0h-1v23.34h1zM33.72 0v23.34h1V0h-1zm1 23.34V0h-1v23.34h1zM56.54 0v23.34h1V0h-1zm1 23.34V0h-1v23.34h1zM79.36 0v23.34h1V0h-1zm1 23.34V0h-1v23.34h1zM102.17 0v23.34h1V0h-1zm1 23.34V0h-1v23.34h1zM124.99 0v23.34h1V0h-1zm1 23.34V0h-1v23.34h1zM147.81 0v23.34h1V0h-1zm1 23.34V0h-1v23.34h1zM170.62 0v23.34h1V0h-1zm1 23.34V0h-1v23.34h1zM193.44 0v23.34h1V0h-1zm1 23.34V0h-1v23.34h1zM216.26 0v23.34h1V0h-1zm1 23.34V0h-1v23.34h1zM239.07 0v23.34h1V0h-1zm1 23.34V0h-1v23.34h1zM261.89 0v23.34h1V0h-1zm1 23.34V0h-1v23.34h1zM284.7 0v23.34h1V0h-1zm1 23.34V0h-1v23.34h1zM307.52 0v23.34h1V0h-1zm1 23.34V0h-1v23.34h1zM330.34 0v23.34h1V0h-1zm1 23.34V0h-1v23.34h1zM353.15 0v23.34h1V0h-1zm1 23.34V0h-1v23.34h1zM375.97 0v23.34h1V0h-1zm1 23.34V0h-1v23.34h1zM398.79 0v23.34h1V0h-1zm1 23.34V0h-1v23.34h1zM421.6 0v23.34h1V0h-1zm1 23.34V0h-1v23.34h1zM444.42 0v23.34h1V0h-1zm1 23.34V0h-1v23.34h1zM467.23 0v23.34h1V0h-1zm1 23.34V0h-1v23.34h1zM490.05 0v23.34h1V0h-1zm1 23.34V0h-1v23.34h1zM512.87 0v23.34h1V0h-1zm1 23.34V0h-1v23.34h1zM535.68 0v23.34h1V0h-1zm1 23.34V0h-1v23.34h1zM558.5 0v23.34h1V0h-1z"/><path id="e" d="M-.5 0v23.34h1V0h-1zm1 23.34V0h-1v23.34h1zM22.32 0v23.34h1V0h-1zm1 23.34V0h-1v23.34h1zM45.13 0v23.34h1V0h-1zm1 23.34V0h-1v23.34h1zM67.95 0v23.34h1V0h-1zm1 23.34V0h-1v23.34h1zM90.77 0v23.34h1V0h-1zm1 23.34V0h-1v23.34h1zM113.58 0v23.34h1V0h-1zm1 23.34V0h-1v23.34h1zM136.4 0v23.34h1V0h-1zm1 23.34V0h-1v23.34h1zM159.21 0v23.34h1V0h-1zm1 23.34V0h-1v23.34h1zM182.03 0v23.34h1V0h-1zm1 23.34V0h-1v23.34h1zM204.85 0v23.34h1V0h-1zm1 23.34V0h-1v23.34h1zM227.66 0v23.34h1V0h-1zm1 23.34V0h-1v23.34h1zM250.48 0v23.34h1V0h-1zm1 23.34V0h-1v23.34h1zM273.3 0v23.34h1V0h-1zm1 23.34V0h-1v23.34h1zM296.11 0v23.34h1V0h-1zm1 23.34V0h-1v23.34h1zM318.93 0v23.34h1V0h-1zm1 23.34V0h-1v23.34h1zM341.74 0v23.34h1V0h-1zm1 23.34V0h-1v23.34h1zM364.56 0v23.34h1V0h-1zm1 23.34V0h-1v23.34h1zM387.38 0v23.34h1V0h-1zm1 23.34V0h-1v23.34h1zM410.19 0v23.34h1V0h-1zm1 23.34V0h-1v23.34h1zM433.01 0v23.34h1V0h-1zm1 23.34V0h-1v23.34h1zM455.83 0v23.34h1V0h-1zm1 23.34V0h-1v23.34h1zM478.64 0v23.34h1V0h-1zm1 23.34V0h-1v23.34h1zM501.46 0v23.34h1V0h-1zm1 23.34V0h-1v23.34h1zM524.28 0v23.34h1V0h-1zm1 23.34V0h-1v23.34h1zM547.09 0v23.34h1V0h-1zm1 23.34V0h-1v23.34h1zM10.91 0v23.34h1V0h-1zm1 23.34V0h-1v23.34h1zM33.72 0v23.34h1V0h-1zm1 23.34V0h-1v23.34h1zM56.54 0v23.34h1V0h-1zm1 23.34V0h-1v23.34h1zM79.36 0v23.34h1V0h-1zm1 23.34V0h-1v23.34h1zM102.17 0v23.34h1V0h-1zm1 23.34V0h-1v23.34h1zM124.99 0v23.34h1V0h-1zm1 23.34V0h-1v23.34h1zM147.81 0v23.34h1V0h-1zm1 23.34V0h-1v23.34h1zM170.62 0v23.34h1V0h-1zm1 23.34V0h-1v23.34h1zM193.44 0v23.34h1V0h-1zm1 23.34V0h-1v23.34h1zM216.26 0v23.34h1V0h-1zm1 23.34V0h-1v23.34h1zM239.07 0v23.34h1V0h-1zm1 23.34V0h-1v23.34h1zM261.89 0v23.34h1V0h-1zm1 23.34V0h-1v23.34h1zM284.7 0v23.34h1V0h-1zm1 23.34V0h-1v23.34h1zM307.52 0v23.34h1V0h-1zm1 23.34V0h-1v23.34h1zM330.34 0v23.34h1V0h-1zm1 23.34V0h-1v23.34h1zM353.15 0v23.34h1V0h-1zm1 23.34V0h-1v23.34h1zM375.97 0v23.34h1V0h-1zm1 23.34V0h-1v23.34h1zM398.79 0v23.34h1V0h-1zm1 23.34V0h-1v23.34h1zM421.6 0v23.34h1V0h-1zm1 23.34V0h-1v23.34h1zM444.42 0v23.34h1V0h-1zm1 23.34V0h-1v23.34h1zM467.23 0v23.34h1V0h-1zm1 23.34V0h-1v23.34h1zM490.05 0v23.34h1V0h-1zm1 23.34V0h-1v23.34h1zM512.87 0v23.34h1V0h-1zm1 23.34V0h-1v23.34h1zM535.68 0v23.34h1V0h-1zm1 23.34V0h-1v23.34h1zM558.5 0v23.34h1V0h-1z"/><path id="f" d="M-.5 0v23.34h1V0h-1zm1 23.34V0h-1v23.34h1zM22.32 0v23.34h1V0h-1zm1 23.34V0h-1v23.34h1zM45.13 0v23.34h1V0h-1zm1 23.34V0h-1v23.34h1zM67.95 0v23.34h1V0h-1zm1 23.34V0h-1v23.34h1zM90.77 0v23.34h1V0h-1zm1 23.34V0h-1v23.34h1zM113.58 0v23.34h1V0h-1zm1 23.34V0h-1v23.34h1zM136.4 0v23.34h1V0h-1zm1 23.34V0h-1v23.34h1zM159.21 0v23.34h1V0h-1zm1 23.34V0h-1v23.34h1zM182.03 0v23.34h1V0h-1zm1 23.34V0h-1v23.34h1zM204.85 0v23.34h1V0h-1zm1 23.34V0h-1v23.34h1zM227.66 0v23.34h1V0h-1zm1 23.34V0h-1v23.34h1zM250.48 0v23.34h1V0h-1zm1 23.34V0h-1v23.34h1zM273.3 0v23.34h1V0h-1zm1 23.34V0h-1v23.34h1zM296.11 0v23.34h1V0h-1zm1 23.34V0h-1v23.34h1zM318.93 0v23.34h1V0h-1zm1 23.34V0h-1v23.34h1zM341.74 0v23.34h1V0h-1zm1 23.34V0h-1v23.34h1zM364.56 0v23.34h1V0h-1zm1 23.34V0h-1v23.34h1zM387.38 0v23.34h1V0h-1zm1 23.34V0h-1v23.34h1zM410.19 0v23.34h1V0h-1zm1 23.34V0h-1v23.34h1zM433.01 0v23.34h1V0h-1zm1 23.34V0h-1v23.34h1zM455.83 0v23.34h1V0h-1zm1 23.34V0h-1v23.34h1zM10.91 0v23.34h1V0h-1zm1 23.34V0h-1v23.34h1zM33.72 0v23.34h1V0h-1zm1 23.34V0h-1v23.34h1zM56.54 0v23.34h1V0h-1zm1 23.34V0h-1v23.34h1zM79.36 0v23.34h1V0h-1zm1 23.34V0h-1v23.34h1zM102.17 0v23.34h1V0h-1zm1 23.34V0h-1v23.34h1zM124.99 0v23.34h1V0h-1zm1 23.34V0h-1v23.34h1zM147.81 0v23.34h1V0h-1zm1 23.34V0h-1v23.34h1zM170.62 0v23.34h1V0h-1zm1 23.34V0h-1v23.34h1zM193.44 0v23.34h1V0h-1zm1 23.34V0h-1v23.34h1zM216.26 0v23.34h1V0h-1zm1 23.34V0h-1v23.34h1zM239.07 0v23.34h1V0h-1zm1 23.34V0h-1v23.34h1zM261.89 0v23.34h1V0h-1zm1 23.34V0h-1v23.34h1zM284.7 0v23.34h1V0h-1zm1 23.34V0h-1v23.34h1zM307.52 0v23.34h1V0h-1zm1 23.34V0h-1v23.34h1zM330.34 0v23.34h1V0h-1zm1 23.34V0h-1v23.34h1zM353.15 0v23.34h1V0h-1zm1 23.34V0h-1v23.34h1zM375.97 0v23.34h1V0h-1zm1 23.34V0h-1v23.34h1zM398.79 0v23.34h1V0h-1zm1 23.34V0h-1v23.34h1zM421.6 0v23.34h1V0h-1zm1 23.34V0h-1v23.34h1zM444.42 0v23.34h1V0h-1z"/></defs></svg>