<svg xmlns="http://www.w3.org/2000/svg" width="220" height="116.93" viewBox="0 0 220 116.93">
  <defs>
    <style>
      .cls-1 {
        fill: #fff;
      }
    </style>
  </defs>
  <title>programs-teenslearningcode</title>
  <g id="Layer_2" data-name="Layer 2">
    <g id="Layer_1-2" data-name="Layer 1">
      <g>
        <g>
          <path class="cls-1" d="M36.89,12.42c0-1.36-.18-1.59-1.59-1.59-1.82,0-2.64-.32-2.64-1.68a1.78,1.78,0,0,1,1.73-1.64H36c.82,0,.91-.18.91-1.46V2.32C36.89,1,37.12,0,38.67,0S40.4,1.09,40.4,2.27v4.5c0,.68.14.73.77.73h4.55c1.87,0,2.32.59,2.32,1.68,0,.86-.41,1.64-2.46,1.64h-4c-1,0-1.18.09-1.18.91v11c0,4.09.91,5.41,3.32,5.41,2.73,0,3.23-2.32,3.23-4.5V22.2c0-2.09.5-2.87,1.82-2.87s1.68,1.09,1.68,2.18c0,5.28-.86,9.83-7.28,9.83a5.82,5.82,0,0,1-5.37-2.73c-.68-1.32-.91-2.41-.91-6.14Z"/>
          <path class="cls-1" d="M56,19.88c-.18,4.64,2.32,8.87,7.32,8.87a6.07,6.07,0,0,0,6.28-4.5c.27-1,.5-2,1.73-2A1.72,1.72,0,0,1,73.19,24a8.14,8.14,0,0,1-2.68,5.23,11,11,0,0,1-7.41,2.64c-7.14,0-10.83-5.32-10.83-12.05A14.6,14.6,0,0,1,55,10.92a10.54,10.54,0,0,1,8.37-4c6.14,0,10.33,4.41,10.33,10.51,0,2.27,0,2.46-2.18,2.46ZM69.87,16.6c-.23-3.73-2.37-6.6-6.41-6.6a6.87,6.87,0,0,0-7,6.6Z"/>
          <path class="cls-1" d="M80,19.88c-.18,4.64,2.32,8.87,7.32,8.87a6.07,6.07,0,0,0,6.28-4.5c.27-1,.5-2,1.73-2A1.72,1.72,0,0,1,97.12,24a8.14,8.14,0,0,1-2.68,5.23A11,11,0,0,1,87,31.84c-7.14,0-10.83-5.32-10.83-12.05a14.6,14.6,0,0,1,2.68-8.87,10.54,10.54,0,0,1,8.37-4c6.14,0,10.33,4.41,10.33,10.51,0,2.27,0,2.46-2.18,2.46ZM93.8,16.6c-.23-3.73-2.37-6.6-6.41-6.6a6.87,6.87,0,0,0-7,6.6Z"/>
          <path class="cls-1" d="M103.32,14.33c0-3.14-.27-3.87-1.32-3.87-.77,0-1.46.27-2.09.27a1.47,1.47,0,0,1-1.55-1.5A1.89,1.89,0,0,1,100,7.55c1,0,1.27.5,2.46.5s1.73-.5,2.87-.5c1,0,1,1,1,2.73h.09c1.73-2.37,4.78-3.37,7.6-3.37a9.81,9.81,0,0,1,6.6,2.46c2,1.82,2.09,4.14,2.09,6.64v8.46c0,2.77.27,3.87,1.32,3.87.77,0,1.46-.27,2.09-.27a1.47,1.47,0,0,1,1.55,1.5c0,1-.73,1.64-2,1.64-1.5,0-2.59-.5-4.64-.5s-3.23.5-4.87.5c-1.23,0-2-.59-2-1.64a1.47,1.47,0,0,1,1.55-1.5c.64,0,1.32.27,2.09.27,1.14,0,1.32-1,1.32-3.87V17.74c0-2.91,0-3.82-.73-5.23-.91-1.77-3-2.5-5-2.5A6.69,6.69,0,0,0,108,12.65c-.55.86-1.18,1.86-1.18,6.41v5.37c0,2.77.27,3.87,1.32,3.87.77,0,1.46-.27,2.09-.27a1.47,1.47,0,0,1,1.55,1.5c0,1-.73,1.68-2,1.68-1.5,0-2.59-.5-4.64-.5s-3.23.5-4.87.5c-1.23,0-2-.64-2-1.68A1.47,1.47,0,0,1,99.91,28c.64,0,1.32.27,2.09.27,1.14,0,1.32-1,1.32-3.87Z"/>
          <path class="cls-1" d="M130,14.28c0-4.87,4.41-7.37,8.87-7.37a8.14,8.14,0,0,1,5.37,1.59c-.14-1,.27-1.91,1.46-1.91a1.4,1.4,0,0,1,1.55,1.5c0,1.14-.27,2.23-.27,3.37s.27,2.27.27,3.37a1.56,1.56,0,0,1-1.64,1.68c-.91,0-1.46-.68-1.46-2.18,0-1.77-.18-2.09-1-2.68A7.9,7.9,0,0,0,138.89,10c-2.37,0-5.09,1.27-5.09,4,0,2.23,1.5,3,5.41,3.5,6.19.82,9.42,2.09,9.42,6.87,0,5.14-4.82,7.46-9.42,7.46a10.2,10.2,0,0,1-6.64-2.14c.23,1.68-.55,2.55-1.55,2.55a1.7,1.7,0,0,1-1.73-1.91c0-1.32.36-2.55.36-3.82s-.36-2.41-.36-3.64a1.49,1.49,0,0,1,1.59-1.64c.82,0,1.36.36,1.41,1.5.23,2.68.23,3.23,1.23,4.09a10.28,10.28,0,0,0,6,1.91,6,6,0,0,0,3.73-1,3.84,3.84,0,0,0,1.55-3c0-2.82-2.64-3.46-4.91-3.73C135.57,20.51,130,19.88,130,14.28Z"/>
          <path class="cls-1" d="M38.94,48.46c0-3.73-.68-3.82-1.32-3.82s-1.46.27-2.5.27a1.47,1.47,0,0,1-1.55-1.5,1.88,1.88,0,0,1,2.09-1.68c1.41,0,2.14.5,3,.5,1.18,0,1.59-.5,2.46-.5,1.14,0,1.27.73,1.27,2.37V67c0,3.32.55,3.82,1.32,3.82s1.46-.27,2.09-.27a1.47,1.47,0,0,1,1.55,1.5,1.83,1.83,0,0,1-2,1.68c-1.55,0-2.46-.5-4.68-.5s-3.23.5-4.82.5a1.83,1.83,0,0,1-2-1.68,1.47,1.47,0,0,1,1.55-1.5c.64,0,1.32.27,2.09.27,1.09,0,1.32-1.23,1.32-3.82Z"/>
          <path class="cls-1" d="M51.1,62.42c-.18,4.64,2.32,8.87,7.32,8.87a6.07,6.07,0,0,0,6.28-4.5c.27-1,.5-2,1.73-2a1.72,1.72,0,0,1,1.82,1.73,8.14,8.14,0,0,1-2.68,5.23,11,11,0,0,1-7.41,2.64c-7.14,0-10.83-5.32-10.83-12.05A14.6,14.6,0,0,1,50,53.46a10.54,10.54,0,0,1,8.37-4c6.14,0,10.33,4.41,10.33,10.51,0,2.27,0,2.46-2.18,2.46Zm13.83-3.27c-.23-3.73-2.37-6.6-6.41-6.6a6.87,6.87,0,0,0-7,6.6Z"/>
          <path class="cls-1" d="M89.95,66.43c0,1.41-.45,5,1.73,5,2,0,1.64-2.91,1.64-4.23s-.18-2.73,1.46-2.73c1.27,0,1.59.82,1.59,1.86,0,3.46,0,5-1,6.28a4.71,4.71,0,0,1-4,1.64c-2.23,0-4.18-1-4.64-3.28-1.59,2.55-4.46,3.46-7.37,3.46A10.17,10.17,0,0,1,74,73.07a6.36,6.36,0,0,1-3-5.41A6.26,6.26,0,0,1,74,61.88a14.34,14.34,0,0,1,6.1-1.64c2.73-.27,6.32-.23,6.32-3.59,0-3-2.46-4.09-5.14-4.09a7.27,7.27,0,0,0-3.5,1c-.36.23-1,.68-1,1.18,0,.23,1.09.27,1.09,1.86a2.24,2.24,0,0,1-2.46,2.14,2.83,2.83,0,0,1-2.82-2.91,6,6,0,0,1,2.82-4.69,11.09,11.09,0,0,1,6-1.68,10.43,10.43,0,0,1,6.23,1.82c2.23,1.73,2.55,4.18,2.5,6.91ZM79.44,71.29a7,7,0,0,0,5.73-2.41,7,7,0,0,0,1.14-4.41c0-1,0-2,.09-2.91-1.68,1.64-4.18,1.73-6.37,2-2.41.23-5.32.82-5.32,4C74.71,70.2,77,71.29,79.44,71.29Z"/>
          <path class="cls-1" d="M102.23,56.83c0-3.09-.36-3.82-1.36-3.82-.77,0-1.46.27-2.64.27a1.47,1.47,0,0,1-1.55-1.5,1.86,1.86,0,0,1,2-1.68c.86,0,1.55.5,2.64.5s1.73-.5,2.59-.5c1.18,0,1.32,1,1.27,2.77h.09a7.09,7.09,0,0,1,6.41-3.41c3.82,0,7.32,2.27,7.32,6.41,0,2.32-1,4.69-3.82,4.69a2.34,2.34,0,0,1-2.46-2.18,2,2,0,0,1,1.86-2,2.77,2.77,0,0,1,.59.14,2.11,2.11,0,0,0,.27-1c0-2-2.23-3.18-4-3.18-3.46,0-5.73,2-5.73,8.6V67c0,3.32.64,3.82,1.46,3.82s1.46-.27,2.09-.27a1.47,1.47,0,0,1,1.55,1.5,1.83,1.83,0,0,1-2,1.68c-1.55,0-2.82-.5-4.69-.5s-3,.5-4.82.5a1.86,1.86,0,0,1-2-1.68,1.47,1.47,0,0,1,1.55-1.5c.64,0,1.32.27,2.09.27,1,0,1.27-.64,1.27-3.82Z"/>
          <path class="cls-1" d="M124.92,56.87c0-3.14-.27-3.87-1.32-3.87-.77,0-1.46.27-2.09.27a1.47,1.47,0,0,1-1.55-1.5,1.89,1.89,0,0,1,1.68-1.68c1,0,1.27.5,2.46.5s1.73-.5,2.87-.5c1,0,1,1,1,2.73h.09c1.73-2.37,4.78-3.37,7.6-3.37a9.81,9.81,0,0,1,6.6,2.46c2,1.82,2.09,4.14,2.09,6.64V67c0,2.77.27,3.87,1.32,3.87.77,0,1.46-.27,2.09-.27a1.47,1.47,0,0,1,1.55,1.5c0,1-.73,1.64-2,1.64-1.5,0-2.59-.5-4.64-.5s-3.23.5-4.87.5c-1.23,0-2-.59-2-1.64a1.47,1.47,0,0,1,1.55-1.5c.64,0,1.32.27,2.09.27,1.14,0,1.32-1,1.32-3.87V60.29c0-2.91,0-3.82-.73-5.23-.91-1.77-3-2.5-5-2.5a6.69,6.69,0,0,0-5.55,2.64c-.55.86-1.18,1.86-1.18,6.41V67c0,2.77.27,3.87,1.32,3.87.77,0,1.46-.27,2.09-.27a1.47,1.47,0,0,1,1.55,1.5c0,1-.73,1.68-2,1.68-1.5,0-2.59-.5-4.64-.5s-3.23.5-4.87.5c-1.23,0-2-.64-2-1.68a1.47,1.47,0,0,1,1.55-1.5c.64,0,1.32.27,2.09.27,1.14,0,1.32-1,1.32-3.87Z"/>
          <path class="cls-1" d="M155.58,56.83c0-3.18-.32-3.82-1.32-3.82-.77,0-1.46.27-2.09.27a1.47,1.47,0,0,1-1.55-1.5,1.58,1.58,0,0,1,1.59-1.68c1.23,0,1.91.5,3,.5s1.73-.5,2.59-.5c1,0,1.27,1,1.27,2V69c0,1.09.36,1.86,1.18,1.86a15.6,15.6,0,0,1,1.82-.27,1.47,1.47,0,0,1,1.55,1.5,1.83,1.83,0,0,1-2,1.68c-1.55,0-2.73-.5-4.69-.5s-3.23.5-4.82.5a1.72,1.72,0,0,1-1.55-1.68,1.47,1.47,0,0,1,1.55-1.5c.64,0,1.32.27,2.09.27,1,0,1.32-1,1.32-3.82Zm3.59-11.69a2.62,2.62,0,1,1-5.23,0,2.62,2.62,0,0,1,5.23,0Z"/>
          <path class="cls-1" d="M169.87,56.87c0-3.14-.27-3.87-1.32-3.87-.77,0-1.46.27-2.09.27a1.47,1.47,0,0,1-1.55-1.5,1.89,1.89,0,0,1,1.68-1.68c1,0,1.27.5,2.46.5s1.73-.5,2.87-.5c1,0,1,1,1,2.73H173c1.73-2.37,4.78-3.37,7.6-3.37a9.81,9.81,0,0,1,6.6,2.46c2,1.82,2.09,4.14,2.09,6.64V67c0,2.77.27,3.87,1.32,3.87.77,0,1.46-.27,2.09-.27a1.47,1.47,0,0,1,1.55,1.5c0,1-.73,1.64-2,1.64-1.5,0-2.59-.5-4.64-.5s-3.23.5-4.87.5c-1.23,0-2-.59-2-1.64a1.47,1.47,0,0,1,1.55-1.5c.64,0,1.32.27,2.09.27,1.14,0,1.32-1,1.32-3.87V60.29c0-2.91,0-3.82-.73-5.23-.91-1.77-3-2.5-5-2.5a6.69,6.69,0,0,0-5.55,2.64c-.55.86-1.18,1.86-1.18,6.41V67c0,2.77.27,3.87,1.32,3.87.77,0,1.46-.27,2.09-.27a1.47,1.47,0,0,1,1.55,1.5c0,1-.73,1.68-2,1.68-1.5,0-2.59-.5-4.64-.5s-3.23.5-4.87.5c-1.23,0-2-.64-2-1.68a1.47,1.47,0,0,1,1.55-1.5c.64,0,1.32.27,2.09.27,1.14,0,1.32-1,1.32-3.87Z"/>
          <path class="cls-1" d="M205.53,67.61a23.68,23.68,0,0,1,7.6.91c2.87,1,5.32,3.09,5.32,6.37,0,5.82-7.19,7.28-11.74,7.28s-11.51-1.23-11.51-7.05a5.63,5.63,0,0,1,4.28-5.37v-.09c-2.14-.73-3.82-1.91-3.82-4.32a4.8,4.8,0,0,1,3.82-4.59,6,6,0,0,1-1.27-4c0-4.73,4.37-7.32,8.69-7.32a9.33,9.33,0,0,1,2.73.32c-.14-3,2.5-4.69,5.23-4.69,2.46,0,5.14,1.36,5.14,4.14a2.61,2.61,0,0,1-2.46,2.64,1.82,1.82,0,0,1-1.82-1.77,1.94,1.94,0,0,1,1-1.5,2.23,2.23,0,0,0-1.91-.91c-1.82,0-2.59,1.46-2.5,3.09a7.46,7.46,0,0,1,3.55,6.41c0,4.91-4.23,7.69-8.64,7.69A13.15,13.15,0,0,1,202,63.65a3.77,3.77,0,0,0-1.23-.32,1.9,1.9,0,0,0-1.68,2c0,2.23,3.14,2.32,4.78,2.32Zm-4.14,4.14A3.8,3.8,0,0,0,199,75.07c0,1.73,1.5,2.91,3,3.46a15.85,15.85,0,0,0,4.82.68c2.59,0,7.91-.64,7.91-4.23s-5-4.14-7.73-4.14A14.38,14.38,0,0,0,201.4,71.75Zm11-14.65c-.09-2.87-2.59-4.69-5.32-4.69s-5.14,1.86-5.14,4.73,2.32,4.69,5.09,4.69S212.27,60.2,212.36,57.1Z"/>
          <path class="cls-1" d="M49.95,109.43c.32-1.23.5-2.82,2.09-2.82a1.81,1.81,0,0,1,1.77,1.77,10,10,0,0,1-2.5,5.59,9.68,9.68,0,0,1-7.28,3c-6.91,0-10.55-5.64-10.55-12C33.48,97.87,37.08,92,44.67,92a9.88,9.88,0,0,1,5.5,1.64,7,7,0,0,1,3,5.46c0,2.14-1,4.14-3.41,4.14a2.56,2.56,0,0,1-2.68-2.5,2.21,2.21,0,0,1,2.37-2.09c-.09-2.37-3-3.55-5-3.55-5.14,0-7.23,4.91-7.23,9.37s1.68,9.37,7,9.37A5.71,5.71,0,0,0,49.95,109.43Z"/>
          <path class="cls-1" d="M66.73,92c3.28,0,6.23.86,8.32,3.46a14.31,14.31,0,0,1,2.87,8.92c0,6.91-3.87,12.55-11.24,12.55s-10.78-5.78-10.78-12.42S59.41,92,66.73,92Zm0,21.83c5.59,0,7.41-4.82,7.41-9.64a12.43,12.43,0,0,0-1.64-6.46A6.21,6.21,0,0,0,67,95.1a6.1,6.1,0,0,0-5.78,3.09,12.87,12.87,0,0,0-1.55,6.19C59.68,108.88,61.41,113.84,66.73,113.84Z"/>
          <path class="cls-1" d="M101.35,109.56c0,3.14.36,3.82,1.32,3.82.77,0,1.46-.27,2.09-.27a1.47,1.47,0,0,1,1.55,1.5,1.56,1.56,0,0,1-1.5,1.68c-.82,0-1.64-.5-2.68-.5s-1.36.5-2.46.5-1.59-.45-1.59-2.18v-.45H98c-1.41,2.32-4.32,3.27-7,3.27-7.23,0-10.6-6-10.6-12.6C80.38,97.92,83.66,92,90.71,92c2.82,0,5.46.91,7.05,3.41h.09V91c0-3.37-.45-3.82-1.32-3.82s-1.46.27-2.09.27A1.47,1.47,0,0,1,92.89,86a1.72,1.72,0,0,1,1.73-1.68c1.27,0,2,.5,3.23.5s1.82-.5,2.73-.5c.5,0,.77.36.77,2Zm-17.19-5c0,4.46,2,9.28,7,9.28a6,6,0,0,0,5.59-3.14,15,15,0,0,0,1-6.41c0-2.18-.14-4.78-1.46-6.6a6.37,6.37,0,0,0-5.46-2.59C85.7,95.1,84.16,100.15,84.16,104.56Z"/>
          <path class="cls-1" d="M109.76,105c-.18,4.64,2.32,8.87,7.32,8.87a6.07,6.07,0,0,0,6.28-4.5c.27-1,.5-2,1.73-2a1.72,1.72,0,0,1,1.82,1.73,8.14,8.14,0,0,1-2.68,5.23,11,11,0,0,1-7.41,2.64c-7.14,0-10.83-5.32-10.83-12.05A14.6,14.6,0,0,1,108.67,96,10.54,10.54,0,0,1,117,92c6.14,0,10.33,4.41,10.33,10.51,0,2.27,0,2.46-2.18,2.46Zm13.83-3.27c-.23-3.73-2.37-6.6-6.41-6.6a6.87,6.87,0,0,0-7,6.6Z"/>
        </g>
        <path class="cls-1" d="M22.48,16.58l4.76-4.76a1.35,1.35,0,0,0-.08-2,1.35,1.35,0,0,0-2-.08l-4.76,4.76L15.85,10l4.76-4.76a1.35,1.35,0,0,0-.08-2,1.35,1.35,0,0,0-2-.08L13.81,7.91,9.05,3.15a1.35,1.35,0,0,0-2,.08,1.35,1.35,0,0,0-.08,2L11.77,10,7.18,14.54,2.42,9.78a1.35,1.35,0,0,0-2,.08,1.35,1.35,0,0,0-.08,2l4.76,4.76L.38,21.34a1.35,1.35,0,0,0,.08,2,1.35,1.35,0,0,0,2,.08l4.76-4.76,4.59,4.59L7,28a1.35,1.35,0,0,0,.08,2,1.35,1.35,0,0,0,2,.08l4.76-4.76L18.57,30a1.45,1.45,0,0,0,2-2l-4.76-4.76,4.59-4.59,4.76,4.76a1.45,1.45,0,0,0,2-2Zm-8.67,4.59L9.22,16.58,13.81,12l4.59,4.59Z"/>
      </g>
    </g>
  </g>
</svg>
