<svg xmlns="http://www.w3.org/2000/svg" width="220" height="117.75" viewBox="0 0 220 117.75">
  <defs>
    <style>
      .cls-1 {
        fill: #fff;
      }
    </style>
  </defs>
  <title>programs-girlslearningcode</title>
  <g id="Layer_2" data-name="Layer 2">
    <g id="Layer_1-2" data-name="Layer 1">
      <g>
        <g>
          <path class="cls-1" d="M44.26,25.88a23.68,23.68,0,0,1,7.6.91c2.87,1,5.32,3.09,5.32,6.37,0,5.82-7.19,7.28-11.74,7.28s-11.51-1.23-11.51-7.05A5.63,5.63,0,0,1,38.21,28v-.09c-2.14-.73-3.82-1.91-3.82-4.32A4.8,4.8,0,0,1,38.21,19a6,6,0,0,1-1.27-4c0-4.73,4.37-7.32,8.69-7.32a9.33,9.33,0,0,1,2.73.32c-.14-3,2.5-4.69,5.23-4.69,2.46,0,5.14,1.36,5.14,4.14a2.61,2.61,0,0,1-2.46,2.64,1.82,1.82,0,0,1-1.82-1.77,1.94,1.94,0,0,1,1-1.5A2.23,2.23,0,0,0,53.54,6C51.72,6,50.95,7.41,51,9.05a7.46,7.46,0,0,1,3.55,6.41c0,4.91-4.23,7.69-8.64,7.69a13.15,13.15,0,0,1-5.23-1.23,3.77,3.77,0,0,0-1.23-.32,1.9,1.9,0,0,0-1.68,2c0,2.23,3.14,2.32,4.78,2.32ZM40.12,30a3.8,3.8,0,0,0-2.41,3.32c0,1.73,1.5,2.91,3,3.46a15.84,15.84,0,0,0,4.82.68c2.59,0,7.91-.64,7.91-4.23s-5-4.14-7.73-4.14A14.38,14.38,0,0,0,40.12,30Zm11-14.65c-.09-2.87-2.59-4.69-5.32-4.69s-5.14,1.86-5.14,4.73,2.32,4.69,5.09,4.69S51,18.47,51.09,15.37Z"/>
          <path class="cls-1" d="M64.91,15.1c0-3.18-.32-3.82-1.32-3.82-.77,0-1.46.27-2.09.27A1.47,1.47,0,0,1,60,10.05a1.58,1.58,0,0,1,1.59-1.68c1.23,0,1.91.5,3,.5s1.73-.5,2.59-.5c1,0,1.27,1,1.27,2V27.25c0,1.09.36,1.86,1.18,1.86a15.58,15.58,0,0,1,1.82-.27A1.47,1.47,0,0,1,73,30.34,1.83,1.83,0,0,1,71,32c-1.55,0-2.73-.5-4.68-.5s-3.23.5-4.82.5A1.72,1.72,0,0,1,60,30.34a1.47,1.47,0,0,1,1.55-1.5c.64,0,1.32.27,2.09.27,1,0,1.32-1,1.32-3.82ZM68.51,3.41a2.62,2.62,0,1,1-5.23,0,2.62,2.62,0,0,1,5.23,0Z"/>
          <path class="cls-1" d="M79.47,15.1c0-3.09-.36-3.82-1.36-3.82-.77,0-1.46.27-2.64.27a1.47,1.47,0,0,1-1.55-1.5,1.86,1.86,0,0,1,2-1.68c.86,0,1.55.5,2.64.5s1.73-.5,2.59-.5c1.18,0,1.32,1,1.27,2.77h.09A7.09,7.09,0,0,1,89,7.73c3.82,0,7.32,2.27,7.32,6.41,0,2.32-1,4.69-3.82,4.69A2.34,2.34,0,0,1,90,16.65a2,2,0,0,1,1.86-2,2.77,2.77,0,0,1,.59.14,2.11,2.11,0,0,0,.27-1c0-2-2.23-3.18-4-3.18-3.46,0-5.73,2-5.73,8.6v6.1c0,3.32.64,3.82,1.46,3.82s1.46-.27,2.09-.27a1.47,1.47,0,0,1,1.55,1.5,1.83,1.83,0,0,1-2,1.68c-1.55,0-2.82-.5-4.68-.5s-3,.5-4.82.5a1.86,1.86,0,0,1-2-1.68,1.47,1.47,0,0,1,1.55-1.5c.64,0,1.32.27,2.09.27,1,0,1.27-.64,1.27-3.82Z"/>
          <path class="cls-1" d="M99.94,6.73c0-3.73-.68-3.82-1.32-3.82s-1.46.27-2.5.27a1.47,1.47,0,0,1-1.55-1.5A1.88,1.88,0,0,1,96.66,0c1.41,0,2.14.5,3,.5,1.18,0,1.59-.5,2.46-.5,1.14,0,1.27.73,1.27,2.37V25.29c0,3.32.55,3.82,1.32,3.82s1.46-.27,2.09-.27a1.47,1.47,0,0,1,1.55,1.5,1.83,1.83,0,0,1-2,1.68c-1.55,0-2.46-.5-4.68-.5s-3.23.5-4.82.5a1.83,1.83,0,0,1-2-1.68,1.47,1.47,0,0,1,1.55-1.5c.64,0,1.32.27,2.09.27,1.09,0,1.32-1.23,1.32-3.82Z"/>
          <path class="cls-1" d="M110.92,15.1c0-4.87,4.41-7.37,8.87-7.37a8.14,8.14,0,0,1,5.37,1.59c-.14-1,.27-1.91,1.46-1.91a1.4,1.4,0,0,1,1.55,1.5c0,1.14-.27,2.23-.27,3.37s.27,2.27.27,3.37a1.56,1.56,0,0,1-1.64,1.68c-.91,0-1.46-.68-1.46-2.18,0-1.77-.18-2.09-1-2.68a7.89,7.89,0,0,0-4.28-1.64c-2.37,0-5.09,1.27-5.09,4,0,2.23,1.5,3,5.41,3.5,6.19.82,9.42,2.09,9.42,6.87,0,5.14-4.82,7.46-9.42,7.46a10.2,10.2,0,0,1-6.64-2.14c.23,1.68-.55,2.55-1.55,2.55a1.7,1.7,0,0,1-1.73-1.91c0-1.32.36-2.55.36-3.82s-.36-2.41-.36-3.64a1.49,1.49,0,0,1,1.59-1.64c.82,0,1.36.36,1.41,1.5.23,2.68.23,3.23,1.23,4.09a10.28,10.28,0,0,0,6,1.91,6,6,0,0,0,3.73-1,3.84,3.84,0,0,0,1.55-3c0-2.82-2.64-3.46-4.91-3.73C116.47,21.33,110.92,20.7,110.92,15.1Z"/>
          <path class="cls-1" d="M38.94,50.85c0-3.73-.68-3.82-1.32-3.82s-1.46.27-2.5.27a1.47,1.47,0,0,1-1.55-1.5,1.88,1.88,0,0,1,2.09-1.68c1.41,0,2.14.5,3,.5,1.18,0,1.59-.5,2.46-.5,1.14,0,1.27.73,1.27,2.37V69.41c0,3.32.55,3.82,1.32,3.82S45.22,73,45.86,73a1.47,1.47,0,0,1,1.55,1.5,1.83,1.83,0,0,1-2,1.68c-1.55,0-2.46-.5-4.69-.5s-3.23.5-4.82.5a1.83,1.83,0,0,1-2-1.68A1.47,1.47,0,0,1,35.53,73c.64,0,1.32.27,2.09.27,1.09,0,1.32-1.23,1.32-3.82Z"/>
          <path class="cls-1" d="M51.1,64.81c-.18,4.64,2.32,8.87,7.32,8.87a6.07,6.07,0,0,0,6.28-4.5c.27-1,.5-2,1.73-2a1.72,1.72,0,0,1,1.82,1.73,8.14,8.14,0,0,1-2.68,5.23,11,11,0,0,1-7.41,2.64c-7.14,0-10.83-5.32-10.83-12.05A14.6,14.6,0,0,1,50,55.85a10.54,10.54,0,0,1,8.37-4c6.14,0,10.33,4.41,10.33,10.51,0,2.27,0,2.46-2.18,2.46Zm13.83-3.27c-.23-3.73-2.37-6.6-6.41-6.6a6.87,6.87,0,0,0-7,6.6Z"/>
          <path class="cls-1" d="M89.95,68.81c0,1.41-.45,5,1.73,5,2,0,1.64-2.91,1.64-4.23s-.18-2.73,1.46-2.73c1.27,0,1.59.82,1.59,1.86,0,3.46,0,5-1,6.28a4.71,4.71,0,0,1-4,1.64c-2.23,0-4.18-1-4.64-3.28-1.59,2.55-4.46,3.46-7.37,3.46A10.17,10.17,0,0,1,74,75.45a6.36,6.36,0,0,1-3-5.41A6.26,6.26,0,0,1,74,64.27a14.34,14.34,0,0,1,6.1-1.64c2.73-.27,6.32-.23,6.32-3.59,0-3-2.46-4.09-5.14-4.09a7.27,7.27,0,0,0-3.5,1c-.36.23-1,.68-1,1.18,0,.23,1.09.27,1.09,1.86a2.24,2.24,0,0,1-2.46,2.14,2.83,2.83,0,0,1-2.82-2.91,6,6,0,0,1,2.82-4.69,11.09,11.09,0,0,1,6-1.68,10.43,10.43,0,0,1,6.23,1.82c2.23,1.73,2.55,4.18,2.5,6.91ZM79.44,73.68a7,7,0,0,0,5.73-2.41,7,7,0,0,0,1.14-4.41c0-1,0-2,.09-2.91-1.68,1.64-4.18,1.73-6.37,2-2.41.23-5.32.82-5.32,4C74.71,72.59,77,73.68,79.44,73.68Z"/>
          <path class="cls-1" d="M102.23,59.22c0-3.09-.36-3.82-1.36-3.82-.77,0-1.46.27-2.64.27a1.47,1.47,0,0,1-1.55-1.5,1.86,1.86,0,0,1,2-1.68c.86,0,1.55.5,2.64.5s1.73-.5,2.59-.5c1.18,0,1.32,1,1.27,2.77h.09a7.09,7.09,0,0,1,6.41-3.41c3.82,0,7.32,2.27,7.32,6.41,0,2.32-1,4.69-3.82,4.69a2.34,2.34,0,0,1-2.46-2.18,2,2,0,0,1,1.86-2,2.77,2.77,0,0,1,.59.14,2.11,2.11,0,0,0,.27-1c0-2-2.23-3.18-4-3.18-3.46,0-5.73,2-5.73,8.6v6.1c0,3.32.64,3.82,1.46,3.82s1.46-.27,2.09-.27a1.47,1.47,0,0,1,1.55,1.5,1.83,1.83,0,0,1-2,1.68c-1.55,0-2.82-.5-4.68-.5s-3,.5-4.82.5a1.86,1.86,0,0,1-2-1.68A1.47,1.47,0,0,1,98.86,73c.64,0,1.32.27,2.09.27,1,0,1.27-.64,1.27-3.82Z"/>
          <path class="cls-1" d="M124.92,59.26c0-3.14-.27-3.87-1.32-3.87-.77,0-1.46.27-2.09.27a1.47,1.47,0,0,1-1.55-1.5,1.89,1.89,0,0,1,1.68-1.68c1,0,1.27.5,2.46.5s1.73-.5,2.87-.5c1,0,1,1,1,2.73h.09c1.73-2.37,4.78-3.37,7.6-3.37a9.81,9.81,0,0,1,6.6,2.46c2,1.82,2.09,4.14,2.09,6.64v8.46c0,2.77.27,3.87,1.32,3.87.77,0,1.46-.27,2.09-.27a1.47,1.47,0,0,1,1.55,1.5c0,1-.73,1.64-2,1.64-1.5,0-2.59-.5-4.64-.5s-3.23.5-4.87.5c-1.23,0-2-.59-2-1.64a1.47,1.47,0,0,1,1.55-1.5c.64,0,1.32.27,2.09.27,1.14,0,1.32-1,1.32-3.87V62.67c0-2.91,0-3.82-.73-5.23-.91-1.77-3-2.5-5-2.5a6.69,6.69,0,0,0-5.55,2.64c-.55.86-1.18,1.86-1.18,6.41v5.37c0,2.77.27,3.87,1.32,3.87.77,0,1.46-.27,2.09-.27a1.47,1.47,0,0,1,1.55,1.5c0,1-.73,1.68-2,1.68-1.5,0-2.59-.5-4.64-.5s-3.23.5-4.87.5c-1.23,0-2-.64-2-1.68a1.47,1.47,0,0,1,1.55-1.5c.64,0,1.32.27,2.09.27,1.14,0,1.32-1,1.32-3.87Z"/>
          <path class="cls-1" d="M155.58,59.22c0-3.18-.32-3.82-1.32-3.82-.77,0-1.46.27-2.09.27a1.47,1.47,0,0,1-1.55-1.5,1.58,1.58,0,0,1,1.59-1.68c1.23,0,1.91.5,3,.5s1.73-.5,2.59-.5c1,0,1.27,1,1.27,2V71.36c0,1.09.36,1.86,1.18,1.86a15.58,15.58,0,0,1,1.82-.27,1.47,1.47,0,0,1,1.55,1.5,1.83,1.83,0,0,1-2,1.68c-1.55,0-2.73-.5-4.68-.5s-3.23.5-4.82.5a1.72,1.72,0,0,1-1.55-1.68,1.47,1.47,0,0,1,1.55-1.5c.64,0,1.32.27,2.09.27,1,0,1.32-1,1.32-3.82Zm3.59-11.69a2.62,2.62,0,1,1-5.23,0,2.62,2.62,0,0,1,5.23,0Z"/>
          <path class="cls-1" d="M169.87,59.26c0-3.14-.27-3.87-1.32-3.87-.77,0-1.46.27-2.09.27a1.47,1.47,0,0,1-1.55-1.5,1.89,1.89,0,0,1,1.68-1.68c1,0,1.27.5,2.46.5s1.73-.5,2.87-.5c1,0,1,1,1,2.73H173c1.73-2.37,4.78-3.37,7.6-3.37a9.81,9.81,0,0,1,6.6,2.46c2,1.82,2.09,4.14,2.09,6.64v8.46c0,2.77.27,3.87,1.32,3.87.77,0,1.46-.27,2.09-.27a1.47,1.47,0,0,1,1.55,1.5c0,1-.73,1.64-2,1.64-1.5,0-2.59-.5-4.64-.5s-3.23.5-4.87.5c-1.23,0-2-.59-2-1.64a1.47,1.47,0,0,1,1.55-1.5c.64,0,1.32.27,2.09.27,1.14,0,1.32-1,1.32-3.87V62.67c0-2.91,0-3.82-.73-5.23-.91-1.77-3-2.5-5-2.5a6.69,6.69,0,0,0-5.55,2.64c-.55.86-1.18,1.86-1.18,6.41v5.37c0,2.77.27,3.87,1.32,3.87.77,0,1.46-.27,2.09-.27a1.47,1.47,0,0,1,1.55,1.5c0,1-.73,1.68-2,1.68-1.5,0-2.59-.5-4.64-.5s-3.23.5-4.87.5c-1.23,0-2-.64-2-1.68a1.47,1.47,0,0,1,1.55-1.5c.64,0,1.32.27,2.09.27,1.14,0,1.32-1,1.32-3.87Z"/>
          <path class="cls-1" d="M205.54,70a23.68,23.68,0,0,1,7.6.91c2.87,1,5.32,3.09,5.32,6.37,0,5.82-7.19,7.28-11.74,7.28s-11.51-1.23-11.51-7.05a5.63,5.63,0,0,1,4.28-5.37V72c-2.14-.73-3.82-1.91-3.82-4.32a4.8,4.8,0,0,1,3.82-4.59,6,6,0,0,1-1.27-4c0-4.73,4.37-7.32,8.69-7.32a9.33,9.33,0,0,1,2.73.32c-.14-3,2.5-4.69,5.23-4.69,2.46,0,5.14,1.36,5.14,4.14a2.61,2.61,0,0,1-2.46,2.64,1.82,1.82,0,0,1-1.82-1.77,1.94,1.94,0,0,1,1-1.5,2.23,2.23,0,0,0-1.91-.91c-1.82,0-2.59,1.46-2.5,3.09a7.46,7.46,0,0,1,3.55,6.41c0,4.91-4.23,7.69-8.64,7.69A13.15,13.15,0,0,1,202,66a3.77,3.77,0,0,0-1.23-.32,1.9,1.9,0,0,0-1.68,2c0,2.23,3.14,2.32,4.78,2.32Zm-4.14,4.14A3.8,3.8,0,0,0,199,77.46c0,1.73,1.5,2.91,3,3.46a15.84,15.84,0,0,0,4.82.68c2.59,0,7.91-.64,7.91-4.23s-5-4.14-7.73-4.14A14.38,14.38,0,0,0,201.4,74.14Zm11-14.65c-.09-2.87-2.59-4.69-5.32-4.69s-5.14,1.86-5.14,4.73,2.32,4.69,5.09,4.69S212.27,62.58,212.36,59.49Z"/>
          <path class="cls-1" d="M49.95,110.25c.32-1.23.5-2.82,2.09-2.82a1.81,1.81,0,0,1,1.77,1.77,10,10,0,0,1-2.5,5.59,9.68,9.68,0,0,1-7.28,3c-6.91,0-10.55-5.64-10.55-12,0-7.05,3.59-12.92,11.19-12.92a9.88,9.88,0,0,1,5.5,1.64,7,7,0,0,1,3,5.46c0,2.14-1,4.14-3.41,4.14a2.56,2.56,0,0,1-2.68-2.5,2.21,2.21,0,0,1,2.37-2.09c-.09-2.37-3-3.55-5-3.55-5.14,0-7.23,4.91-7.23,9.37s1.68,9.37,7,9.37A5.71,5.71,0,0,0,49.95,110.25Z"/>
          <path class="cls-1" d="M66.73,92.83c3.27,0,6.23.86,8.32,3.46a14.31,14.31,0,0,1,2.87,8.92c0,6.91-3.87,12.55-11.24,12.55S55.91,112,55.91,105.33,59.41,92.83,66.73,92.83Zm0,21.83c5.59,0,7.41-4.82,7.41-9.64a12.43,12.43,0,0,0-1.64-6.46A6.21,6.21,0,0,0,67,95.92,6.1,6.1,0,0,0,61.23,99a12.87,12.87,0,0,0-1.55,6.19C59.68,109.7,61.41,114.66,66.73,114.66Z"/>
          <path class="cls-1" d="M101.35,110.38c0,3.14.36,3.82,1.32,3.82.77,0,1.46-.27,2.09-.27a1.47,1.47,0,0,1,1.55,1.5,1.56,1.56,0,0,1-1.5,1.68c-.82,0-1.64-.5-2.68-.5s-1.36.5-2.46.5-1.59-.45-1.59-2.18v-.45H98c-1.41,2.32-4.32,3.27-7,3.27-7.23,0-10.6-6-10.6-12.6,0-6.41,3.28-12.33,10.33-12.33,2.82,0,5.46.91,7.05,3.41h.09V91.82c0-3.37-.45-3.82-1.32-3.82s-1.46.27-2.09.27a1.47,1.47,0,0,1-1.55-1.5,1.72,1.72,0,0,1,1.73-1.68c1.27,0,2,.5,3.23.5s1.82-.5,2.73-.5c.5,0,.77.36.77,2Zm-17.19-5c0,4.46,2,9.28,7.05,9.28a6,6,0,0,0,5.59-3.14,15,15,0,0,0,1-6.41c0-2.18-.14-4.78-1.46-6.6a6.37,6.37,0,0,0-5.46-2.59C85.7,95.92,84.16,101,84.16,105.38Z"/>
          <path class="cls-1" d="M109.76,105.79c-.18,4.64,2.32,8.87,7.32,8.87a6.07,6.07,0,0,0,6.28-4.5c.27-1,.5-2,1.73-2a1.72,1.72,0,0,1,1.82,1.73,8.14,8.14,0,0,1-2.68,5.23,11,11,0,0,1-7.41,2.64c-7.14,0-10.83-5.32-10.83-12.05a14.6,14.6,0,0,1,2.68-8.87,10.54,10.54,0,0,1,8.37-4c6.14,0,10.33,4.41,10.33,10.51,0,2.27,0,2.46-2.18,2.46Zm13.83-3.27c-.23-3.73-2.37-6.6-6.41-6.6a6.87,6.87,0,0,0-7,6.6Z"/>
        </g>
        <path class="cls-1" d="M22.48,17.4l4.76-4.76a1.35,1.35,0,0,0-.08-2,1.35,1.35,0,0,0-2-.08l-4.76,4.76-4.59-4.59L20.61,6a1.35,1.35,0,0,0-.08-2,1.35,1.35,0,0,0-2-.08L13.81,8.73,9.05,4a1.35,1.35,0,0,0-2,.08A1.35,1.35,0,0,0,7,6l4.76,4.76L7.18,15.36,2.42,10.6a1.35,1.35,0,0,0-2,.08,1.35,1.35,0,0,0-.08,2L5.14,17.4.38,22.16a1.35,1.35,0,0,0,.08,2,1.35,1.35,0,0,0,2,.08l4.76-4.76L11.77,24,7,28.79a1.35,1.35,0,0,0,.08,2,1.35,1.35,0,0,0,2,.08l4.76-4.76,4.76,4.76a1.45,1.45,0,0,0,2-2L15.85,24l4.59-4.59L25.2,24.2a1.45,1.45,0,0,0,2-2ZM13.81,22,9.22,17.4l4.59-4.59L18.4,17.4Z"/>
      </g>
    </g>
  </g>
</svg>
