<svg xmlns="http://www.w3.org/2000/svg" width="284.19" height="22" viewBox="0 0 284.19 22">
  <defs>
    <style>
      .cls-1 {
        fill: #fff;
      }
    </style>
  </defs>
  <title>programs-teacherslearningcode-long</title>
  <g id="Layer_2" data-name="Layer 2">
    <g id="Layer_1-2" data-name="Layer 1">
      <g>
        <g>
          <path class="cls-1" d="M20.07,7.2c0-.74-.1-.87-.87-.87-1,0-1.44-.17-1.44-.92a1,1,0,0,1,.94-.89h.87c.45,0,.49-.1.49-.79v-2c0-.69.12-1.26,1-1.26S22,1,22,1.68V4.13c0,.37.07.4.42.4h2.47c1,0,1.26.32,1.26.92s-.22.89-1.34.89H22.62c-.57,0-.64,0-.64.49v6c0,2.23.49,2.94,1.81,2.94,1.48,0,1.76-1.26,1.76-2.45v-.79c0-1.14.27-1.56,1-1.56s.92.59.92,1.19c0,2.87-.47,5.35-4,5.35A3.17,3.17,0,0,1,20.57,16c-.37-.72-.5-1.31-.5-3.34Z"/>
          <path class="cls-1" d="M30.61,11.26c-.1,2.52,1.26,4.83,4,4.83A3.3,3.3,0,0,0,38,13.64c.15-.52.27-1.09.94-1.09a.94.94,0,0,1,1,.94,4.43,4.43,0,0,1-1.46,2.85,6,6,0,0,1-4,1.44c-3.89,0-5.89-2.9-5.89-6.56A7.94,7.94,0,0,1,30,6.38a5.73,5.73,0,0,1,4.55-2.18,5.43,5.43,0,0,1,5.62,5.72c0,1.24,0,1.34-1.19,1.34Zm7.52-1.78c-.12-2-1.29-3.59-3.49-3.59a3.74,3.74,0,0,0-3.81,3.59Z"/>
          <path class="cls-1" d="M51.87,13.44c0,.77-.25,2.7.94,2.7s.89-1.58.89-2.3-.1-1.48.79-1.48c.69,0,.87.45.87,1,0,1.88,0,2.72-.52,3.42a2.56,2.56,0,0,1-2.18.89,2.32,2.32,0,0,1-2.52-1.78,4.48,4.48,0,0,1-4,1.88,5.53,5.53,0,0,1-2.94-.72,3.46,3.46,0,0,1-1.66-2.94A3.41,3.41,0,0,1,43.21,11a7.8,7.8,0,0,1,3.32-.89C48,9.92,50,9.95,50,8.12c0-1.66-1.34-2.23-2.8-2.23a4,4,0,0,0-1.91.54c-.2.12-.57.37-.57.64s.59.15.59,1A1.22,1.22,0,0,1,44,9.26a1.54,1.54,0,0,1-1.53-1.58A3.24,3.24,0,0,1,44,5.12a6,6,0,0,1,3.27-.92,5.68,5.68,0,0,1,3.39,1C51.82,6.14,52,7.47,52,9Zm-5.72,2.65a3.82,3.82,0,0,0,3.12-1.31,3.81,3.81,0,0,0,.62-2.4c0-.52,0-1.06,0-1.58-.92.89-2.28.94-3.46,1.06s-2.9.45-2.9,2.15C43.58,15.49,44.84,16.09,46.16,16.09Z"/>
          <path class="cls-1" d="M65.06,13.69c.17-.67.27-1.53,1.14-1.53a1,1,0,0,1,1,1,5.44,5.44,0,0,1-1.36,3,5.26,5.26,0,0,1-4,1.61c-3.76,0-5.74-3.07-5.74-6.53,0-3.84,2-7,6.09-7a5.38,5.38,0,0,1,3,.89,3.79,3.79,0,0,1,1.66,3c0,1.16-.57,2.25-1.86,2.25A1.4,1.4,0,0,1,63.53,9a1.2,1.2,0,0,1,1.29-1.14c0-1.29-1.61-1.93-2.72-1.93-2.8,0-3.93,2.67-3.93,5.1s.92,5.1,3.81,5.1A3.11,3.11,0,0,0,65.06,13.69Z"/>
          <path class="cls-1" d="M80.28,13.76c0,1.68.17,2.08.72,2.08s.79-.15,1.14-.15a.8.8,0,0,1,.84.82.94.94,0,0,1-1.06.92c-.84,0-1.39-.27-2.55-.27s-1.76.27-2.62.27a1,1,0,0,1-1.06-.92.8.8,0,0,1,.84-.82c.35,0,.72.15,1.14.15.59,0,.72-.52.72-2.08V11.28a14.68,14.68,0,0,0-.22-3.46,2.74,2.74,0,0,0-2.82-1.93,3.69,3.69,0,0,0-3,1.31,5.64,5.64,0,0,0-.64,3.24v3.32c0,1.68.17,2.08.72,2.08s.79-.15,1.14-.15a.8.8,0,0,1,.84.82.94.94,0,0,1-1.06.92c-.84,0-1.39-.27-2.55-.27s-1.76.27-2.62.27a1,1,0,0,1-1.06-.92.8.8,0,0,1,.84-.82c.35,0,.72.15,1.14.15.59,0,.72-.52.72-2.08V3.66c0-2-.37-2.08-.72-2.08s-.79.15-1.14.15a.8.8,0,0,1-.84-.82A1,1,0,0,1,68,0c.74,0,1.14.27,1.63.27S70.53,0,71,0s.69.4.69,1.29V5.82a4.91,4.91,0,0,1,3.79-1.61A5.42,5.42,0,0,1,79,5.44a4.26,4.26,0,0,1,1.31,3.49Z"/>
          <path class="cls-1" d="M84.81,11.26c-.1,2.52,1.26,4.83,4,4.83a3.3,3.3,0,0,0,3.42-2.45c.15-.52.27-1.09.94-1.09a.94.94,0,0,1,1,.94,4.43,4.43,0,0,1-1.46,2.85,6,6,0,0,1-4,1.44c-3.89,0-5.89-2.9-5.89-6.56a7.94,7.94,0,0,1,1.46-4.83,5.73,5.73,0,0,1,4.55-2.18,5.43,5.43,0,0,1,5.62,5.72c0,1.24,0,1.34-1.19,1.34Zm7.52-1.78c-.12-2-1.29-3.59-3.49-3.59A3.74,3.74,0,0,0,85,9.48Z"/>
          <path class="cls-1" d="M97.7,8.22c0-1.68-.2-2.08-.74-2.08s-.79.15-1.44.15a.8.8,0,0,1-.84-.82,1,1,0,0,1,1.11-.92c.47,0,.84.27,1.44.27s.94-.27,1.41-.27c.64,0,.72.52.69,1.51h0a3.86,3.86,0,0,1,3.49-1.86c2.08,0,4,1.24,4,3.49,0,1.26-.57,2.55-2.08,2.55a1.27,1.27,0,0,1-1.34-1.19,1.06,1.06,0,0,1,1-1.06,1.51,1.51,0,0,1,.32.07,1.15,1.15,0,0,0,.15-.57c0-1.11-1.21-1.73-2.2-1.73-1.88,0-3.12,1.09-3.12,4.68v3.32c0,1.81.35,2.08.79,2.08s.79-.15,1.14-.15a.8.8,0,0,1,.84.82,1,1,0,0,1-1.06.92c-.84,0-1.53-.27-2.55-.27s-1.61.27-2.62.27A1,1,0,0,1,95,16.51a.8.8,0,0,1,.84-.82c.35,0,.72.15,1.14.15s.69-.35.69-2.08Z"/>
          <path class="cls-1" d="M108,8.22c0-2.65,2.4-4,4.83-4a4.43,4.43,0,0,1,2.92.87c-.07-.57.15-1,.79-1a.76.76,0,0,1,.84.82c0,.62-.15,1.21-.15,1.83s.15,1.24.15,1.83a.85.85,0,0,1-.89.92c-.5,0-.79-.37-.79-1.19s-.1-1.14-.54-1.46a4.29,4.29,0,0,0-2.33-.89c-1.29,0-2.77.69-2.77,2.18,0,1.21.82,1.63,2.94,1.91,3.37.45,5.12,1.14,5.12,3.74,0,2.8-2.62,4.06-5.12,4.06a5.55,5.55,0,0,1-3.61-1.16c.12.92-.3,1.39-.84,1.39a.92.92,0,0,1-.94-1c0-.72.2-1.39.2-2.08s-.2-1.31-.2-2a.81.81,0,0,1,.87-.89c.45,0,.74.2.77.82.12,1.46.12,1.76.67,2.23a5.59,5.59,0,0,0,3.29,1,3.29,3.29,0,0,0,2-.57,2.09,2.09,0,0,0,.84-1.61c0-1.53-1.44-1.88-2.67-2C111.07,11.61,108,11.26,108,8.22Z"/>
          <path class="cls-1" d="M128.42,3.66c0-2-.37-2.08-.72-2.08s-.79.15-1.36.15a.8.8,0,0,1-.84-.82A1,1,0,0,1,126.63,0c.77,0,1.16.27,1.66.27s.87-.27,1.34-.27.69.4.69,1.29V13.76c0,1.81.3,2.08.72,2.08s.79-.15,1.14-.15a.8.8,0,0,1,.84.82,1,1,0,0,1-1.06.92c-.84,0-1.34-.27-2.55-.27s-1.76.27-2.62.27a1,1,0,0,1-1.06-.92.8.8,0,0,1,.84-.82c.35,0,.72.15,1.14.15.59,0,.72-.67.72-2.08Z"/>
          <path class="cls-1" d="M135,11.26c-.1,2.52,1.26,4.83,4,4.83a3.3,3.3,0,0,0,3.41-2.45c.15-.52.27-1.09.94-1.09a.94.94,0,0,1,1,.94,4.43,4.43,0,0,1-1.46,2.85,6,6,0,0,1-4,1.44c-3.89,0-5.89-2.9-5.89-6.56a7.94,7.94,0,0,1,1.46-4.83A5.73,5.73,0,0,1,139,4.21a5.43,5.43,0,0,1,5.62,5.72c0,1.24,0,1.34-1.19,1.34Zm7.52-1.78c-.12-2-1.29-3.59-3.49-3.59a3.74,3.74,0,0,0-3.81,3.59Z"/>
          <path class="cls-1" d="M156.16,13.44c0,.77-.25,2.7.94,2.7s.89-1.58.89-2.3-.1-1.48.79-1.48c.69,0,.87.45.87,1,0,1.88,0,2.72-.52,3.42a2.56,2.56,0,0,1-2.18.89,2.32,2.32,0,0,1-2.52-1.78,4.48,4.48,0,0,1-4,1.88,5.54,5.54,0,0,1-2.95-.72,3.46,3.46,0,0,1-1.66-2.94A3.41,3.41,0,0,1,147.5,11a7.8,7.8,0,0,1,3.32-.89c1.48-.15,3.44-.12,3.44-2,0-1.66-1.34-2.23-2.8-2.23a4,4,0,0,0-1.91.54c-.2.12-.57.37-.57.64s.59.15.59,1a1.22,1.22,0,0,1-1.34,1.16,1.54,1.54,0,0,1-1.53-1.58,3.24,3.24,0,0,1,1.53-2.55,6,6,0,0,1,3.27-.92,5.68,5.68,0,0,1,3.39,1c1.21.94,1.39,2.28,1.36,3.76Zm-5.72,2.65a3.82,3.82,0,0,0,3.12-1.31,3.81,3.81,0,0,0,.62-2.4c0-.52,0-1.06,0-1.58-.92.89-2.28.94-3.46,1.06s-2.9.45-2.9,2.15C147.87,15.49,149.14,16.09,150.45,16.09Z"/>
          <path class="cls-1" d="M162.85,8.22c0-1.68-.2-2.08-.74-2.08s-.79.15-1.44.15a.8.8,0,0,1-.84-.82,1,1,0,0,1,1.11-.92c.47,0,.84.27,1.44.27s.94-.27,1.41-.27c.64,0,.72.52.69,1.51h0A3.86,3.86,0,0,1,168,4.21c2.08,0,4,1.24,4,3.49,0,1.26-.57,2.55-2.08,2.55a1.27,1.27,0,0,1-1.34-1.19,1.06,1.06,0,0,1,1-1.06,1.51,1.51,0,0,1,.32.07,1.15,1.15,0,0,0,.15-.57c0-1.11-1.21-1.73-2.2-1.73-1.88,0-3.12,1.09-3.12,4.68v3.32c0,1.81.35,2.08.79,2.08s.79-.15,1.14-.15a.8.8,0,0,1,.84.82,1,1,0,0,1-1.06.92c-.84,0-1.53-.27-2.55-.27s-1.61.27-2.62.27a1,1,0,0,1-1.11-.92.8.8,0,0,1,.84-.82c.35,0,.72.15,1.14.15s.69-.35.69-2.08Z"/>
          <path class="cls-1" d="M175.19,8.24c0-1.71-.15-2.1-.72-2.1s-.79.15-1.14.15a.8.8,0,0,1-.84-.82,1,1,0,0,1,.92-.92c.52,0,.69.27,1.34.27s.94-.27,1.56-.27.54.54.54,1.48h0A5.07,5.07,0,0,1,181,4.21a5.34,5.34,0,0,1,3.59,1.34c1.09,1,1.14,2.25,1.14,3.61v4.6c0,1.51.15,2.1.72,2.1s.79-.15,1.14-.15a.8.8,0,0,1,.84.82c0,.57-.4.89-1.06.89s-1.41-.27-2.52-.27-1.76.27-2.65.27c-.67,0-1.06-.32-1.06-.89a.8.8,0,0,1,.84-.82c.35,0,.72.15,1.14.15.62,0,.72-.54.72-2.1V10.1a5.34,5.34,0,0,0-.4-2.85,3,3,0,0,0-2.7-1.36,3.64,3.64,0,0,0-3,1.44c-.3.47-.64,1-.64,3.49v2.92c0,1.51.15,2.1.72,2.1s.79-.15,1.14-.15a.8.8,0,0,1,.84.82c0,.57-.4.92-1.06.92s-1.41-.27-2.52-.27-1.76.27-2.65.27c-.67,0-1.06-.35-1.06-.92a.8.8,0,0,1,.84-.82c.35,0,.72.15,1.14.15.62,0,.72-.54.72-2.1Z"/>
          <path class="cls-1" d="M191.87,8.22c0-1.73-.17-2.08-.72-2.08s-.79.15-1.14.15a.8.8,0,0,1-.84-.82.86.86,0,0,1,.87-.92c.67,0,1,.27,1.63.27s.94-.27,1.41-.27.69.57.69,1.06v9.21c0,.59.2,1,.64,1a8.48,8.48,0,0,1,1-.15.8.8,0,0,1,.84.82,1,1,0,0,1-1.06.92c-.84,0-1.48-.27-2.55-.27s-1.76.27-2.62.27a.94.94,0,0,1-.84-.92.8.8,0,0,1,.84-.82c.35,0,.72.15,1.14.15s.72-.54.72-2.08Zm2-6.36a1.42,1.42,0,1,1-2.85,0,1.42,1.42,0,0,1,2.85,0Z"/>
          <path class="cls-1" d="M199.65,8.24c0-1.71-.15-2.1-.72-2.1s-.79.15-1.14.15a.8.8,0,0,1-.84-.82,1,1,0,0,1,.92-.92c.52,0,.69.27,1.34.27s.94-.27,1.56-.27.54.54.54,1.48h0a5.07,5.07,0,0,1,4.13-1.83,5.34,5.34,0,0,1,3.59,1.34c1.09,1,1.14,2.25,1.14,3.61v4.6c0,1.51.15,2.1.72,2.1s.79-.15,1.14-.15a.8.8,0,0,1,.84.82c0,.57-.4.89-1.06.89s-1.41-.27-2.52-.27-1.76.27-2.65.27c-.67,0-1.06-.32-1.06-.89a.8.8,0,0,1,.84-.82c.35,0,.72.15,1.14.15.62,0,.72-.54.72-2.1V10.1a5.34,5.34,0,0,0-.4-2.85,3,3,0,0,0-2.7-1.36,3.64,3.64,0,0,0-3,1.44c-.3.47-.64,1-.64,3.49v2.92c0,1.51.15,2.1.72,2.1s.79-.15,1.14-.15a.8.8,0,0,1,.84.82c0,.57-.4.92-1.06.92s-1.41-.27-2.52-.27-1.76.27-2.65.27c-.67,0-1.06-.35-1.06-.92a.8.8,0,0,1,.84-.82c.35,0,.72.15,1.14.15.62,0,.72-.54.72-2.1Z"/>
          <path class="cls-1" d="M219.05,14.08a12.88,12.88,0,0,1,4.13.5,3.76,3.76,0,0,1,2.9,3.46c0,3.17-3.91,4-6.38,4s-6.26-.67-6.26-3.84a3.06,3.06,0,0,1,2.33-2.92v0c-1.16-.4-2.08-1-2.08-2.35a2.61,2.61,0,0,1,2.08-2.5,3.26,3.26,0,0,1-.69-2.15c0-2.57,2.38-4,4.73-4a5.08,5.08,0,0,1,1.49.17,2.59,2.59,0,0,1,2.85-2.55c1.34,0,2.8.74,2.8,2.25a1.42,1.42,0,0,1-1.34,1.44,1,1,0,0,1-1-1,1.06,1.06,0,0,1,.54-.82,1.21,1.21,0,0,0-1-.49c-1,0-1.41.79-1.36,1.68a4.06,4.06,0,0,1,1.93,3.49c0,2.67-2.3,4.18-4.7,4.18a7.15,7.15,0,0,1-2.85-.67,2.05,2.05,0,0,0-.67-.17,1,1,0,0,0-.92,1.06c0,1.21,1.71,1.26,2.6,1.26Zm-2.25,2.25a2.07,2.07,0,0,0-1.31,1.81A2.19,2.19,0,0,0,217.1,20a8.62,8.62,0,0,0,2.62.37c1.41,0,4.31-.35,4.31-2.3s-2.72-2.25-4.21-2.25A7.82,7.82,0,0,0,216.8,16.33Zm6-8a2.74,2.74,0,0,0-2.9-2.55,2.63,2.63,0,0,0-2.8,2.57,2.54,2.54,0,0,0,2.77,2.55A2.68,2.68,0,0,0,222.76,8.36Z"/>
          <path class="cls-1" d="M242.07,13.69c.17-.67.27-1.53,1.14-1.53a1,1,0,0,1,1,1,5.44,5.44,0,0,1-1.36,3,5.26,5.26,0,0,1-4,1.61c-3.76,0-5.74-3.07-5.74-6.53,0-3.84,2-7,6.09-7a5.37,5.37,0,0,1,3,.89,3.79,3.79,0,0,1,1.66,3c0,1.16-.57,2.25-1.86,2.25A1.4,1.4,0,0,1,240.53,9a1.2,1.2,0,0,1,1.29-1.14c0-1.29-1.61-1.93-2.72-1.93-2.8,0-3.93,2.67-3.93,5.1s.92,5.1,3.81,5.1A3.11,3.11,0,0,0,242.07,13.69Z"/>
          <path class="cls-1" d="M251.2,4.21a5.46,5.46,0,0,1,4.53,1.88,7.79,7.79,0,0,1,1.56,4.85c0,3.76-2.1,6.83-6.11,6.83s-5.86-3.14-5.86-6.76S247.21,4.21,251.2,4.21Zm0,11.88c3,0,4-2.62,4-5.25a6.76,6.76,0,0,0-.89-3.51,3.38,3.38,0,0,0-3-1.44,3.32,3.32,0,0,0-3.14,1.68,7,7,0,0,0-.84,3.37C247.36,13.39,248.3,16.09,251.2,16.09Z"/>
          <path class="cls-1" d="M270,13.76c0,1.71.2,2.08.72,2.08s.79-.15,1.14-.15a.8.8,0,0,1,.84.82.85.85,0,0,1-.82.92c-.45,0-.89-.27-1.46-.27s-.74.27-1.34.27-.87-.25-.87-1.19V16h0a4.37,4.37,0,0,1-3.81,1.78c-3.93,0-5.77-3.27-5.77-6.85s1.78-6.71,5.62-6.71a4.28,4.28,0,0,1,3.84,1.86h0V3.66c0-1.83-.25-2.08-.72-2.08s-.79.15-1.14.15a.8.8,0,0,1-.84-.82.93.93,0,0,1,.94-.92c.69,0,1.06.27,1.76.27s1-.27,1.48-.27c.27,0,.42.2.42,1.06ZM260.68,11c0,2.43,1.09,5,3.84,5a3.25,3.25,0,0,0,3-1.71,8.16,8.16,0,0,0,.57-3.49,6.19,6.19,0,0,0-.79-3.59,3.46,3.46,0,0,0-3-1.41C261.52,5.89,260.68,8.64,260.68,11Z"/>
          <path class="cls-1" d="M274.61,11.26c-.1,2.52,1.26,4.83,4,4.83A3.3,3.3,0,0,0,282,13.64c.15-.52.27-1.09.94-1.09a.94.94,0,0,1,1,.94,4.43,4.43,0,0,1-1.46,2.85,6,6,0,0,1-4,1.44c-3.89,0-5.89-2.9-5.89-6.56A7.94,7.94,0,0,1,274,6.38a5.73,5.73,0,0,1,4.55-2.18,5.43,5.43,0,0,1,5.62,5.72c0,1.24,0,1.34-1.19,1.34Zm7.52-1.78c-.12-2-1.29-3.59-3.49-3.59a3.74,3.74,0,0,0-3.81,3.59Z"/>
        </g>
        <path class="cls-1" d="M12.23,9.47l2.59-2.59a.73.73,0,0,0,0-1.07.73.73,0,0,0-1.07,0L11.12,8.36l-2.5-2.5,2.59-2.59a.73.73,0,0,0,0-1.07.73.73,0,0,0-1.07,0L7.51,4.75,4.93,2.16a.73.73,0,0,0-1.07,0,.73.73,0,0,0,0,1.07L6.4,5.86l-2.5,2.5L1.32,5.77a.73.73,0,0,0-1.07,0,.73.73,0,0,0,0,1.07L2.8,9.47.21,12.06a.73.73,0,0,0,0,1.07.73.73,0,0,0,1.07,0l2.59-2.59,2.5,2.5L3.82,15.66a.73.73,0,0,0,0,1.07.73.73,0,0,0,1.07,0l2.59-2.59,2.59,2.59a.79.79,0,0,0,1.11-1.11L8.62,13.07l2.5-2.5,2.59,2.59a.79.79,0,0,0,1.11-1.11ZM7.51,12,5,9.47,7.51,7,10,9.47Z"/>
      </g>
    </g>
  </g>
</svg>
